<?xml version="1.0" encoding="utf-8"?>
<!-- Generator: Adobe Illustrator 24.2.3, SVG Export Plug-In . SVG Version: 6.00 Build 0)  -->
<svg version="1.1" id="Layer_1" xmlns="http://www.w3.org/2000/svg" xmlns:xlink="http://www.w3.org/1999/xlink" x="0px" y="0px"
	 viewBox="0 0 60 60" style="enable-background:new 0 0 60 60;" xml:space="preserve">
<style type="text/css">
	.st0{fill:#FFFFFF;}
	.st1{fill:#FFFFFF;stroke:#000000;stroke-width:0.1;stroke-miterlimit:10;}
	.st2{fill:#FFFFFF;stroke:#000000;stroke-width:0.25;stroke-miterlimit:10;}
	.st3{fill:none;stroke:#000000;stroke-miterlimit:10;}
	.st4{fill:#626360;}
</style>
<g>
	<rect x="41.38" y="20.69" class="st0" width="18.62" height="18.62"/>
	<g>
		<path d="M60,38.06c-5.44,0-10.88,0-16.31,0c-0.77,0-1.54,0-2.31,0c0.42,0.42,0.83,0.83,1.25,1.25c0-5.44,0-10.88,0-16.31
			c0-0.77,0-1.54,0-2.31c-0.42,0.42-0.83,0.83-1.25,1.25c5.44,0,10.88,0,16.31,0c0.77,0,1.54,0,2.31,0
			c-0.42-0.42-0.83-0.83-1.25-1.25c0,5.44,0,10.88,0,16.31c0,0.77,0,1.54,0,2.31c0,1.61,2.5,1.61,2.5,0c0-5.44,0-10.88,0-16.31
			c0-0.77,0-1.54,0-2.31c0-0.68-0.57-1.25-1.25-1.25c-5.44,0-10.88,0-16.31,0c-0.77,0-1.54,0-2.31,0c-0.68,0-1.25,0.57-1.25,1.25
			c0,5.44,0,10.88,0,16.31c0,0.77,0,1.54,0,2.31c0,0.68,0.57,1.25,1.25,1.25c5.44,0,10.88,0,16.31,0c0.77,0,1.54,0,2.31,0
			C61.61,40.56,61.61,38.06,60,38.06z"/>
	</g>
</g>
<g>
	<rect x="41.38" y="41.38" class="st0" width="18.62" height="18.62"/>
	<g>
		<path d="M60,58.75c-5.44,0-10.88,0-16.31,0c-0.77,0-1.54,0-2.31,0c0.42,0.42,0.83,0.83,1.25,1.25c0-5.44,0-10.88,0-16.31
			c0-0.77,0-1.54,0-2.31c-0.42,0.42-0.83,0.83-1.25,1.25c5.44,0,10.88,0,16.31,0c0.77,0,1.54,0,2.31,0
			c-0.42-0.42-0.83-0.83-1.25-1.25c0,5.44,0,10.88,0,16.31c0,0.77,0,1.54,0,2.31c0,1.61,2.5,1.61,2.5,0c0-5.44,0-10.88,0-16.31
			c0-0.77,0-1.54,0-2.31c0-0.68-0.57-1.25-1.25-1.25c-5.44,0-10.88,0-16.31,0c-0.77,0-1.54,0-2.31,0c-0.68,0-1.25,0.57-1.25,1.25
			c0,5.44,0,10.88,0,16.31c0,0.77,0,1.54,0,2.31c0,0.68,0.57,1.25,1.25,1.25c5.44,0,10.88,0,16.31,0c0.77,0,1.54,0,2.31,0
			C61.61,61.25,61.61,58.75,60,58.75z"/>
	</g>
</g>
<rect x="20.69" y="20.69" class="st1" width="18.62" height="18.62"/>
<g>
	<rect x="20.69" y="41.38" class="st0" width="18.62" height="18.62"/>
	<g>
		<path d="M39.31,58.75c-5.44,0-10.88,0-16.31,0c-0.77,0-1.54,0-2.31,0c0.42,0.42,0.83,0.83,1.25,1.25c0-5.44,0-10.88,0-16.31
			c0-0.77,0-1.54,0-2.31c-0.42,0.42-0.83,0.83-1.25,1.25c5.44,0,10.88,0,16.31,0c0.77,0,1.54,0,2.31,0
			c-0.42-0.42-0.83-0.83-1.25-1.25c0,5.44,0,10.88,0,16.31c0,0.77,0,1.54,0,2.31c0,1.61,2.5,1.61,2.5,0c0-5.44,0-10.88,0-16.31
			c0-0.77,0-1.54,0-2.31c0-0.68-0.57-1.25-1.25-1.25c-5.44,0-10.88,0-16.31,0c-0.77,0-1.54,0-2.31,0c-0.68,0-1.25,0.57-1.25,1.25
			c0,5.44,0,10.88,0,16.31c0,0.77,0,1.54,0,2.31c0,0.68,0.57,1.25,1.25,1.25c5.44,0,10.88,0,16.31,0c0.77,0,1.54,0,2.31,0
			C40.92,61.25,40.92,58.75,39.31,58.75z"/>
	</g>
</g>
<g>
	<rect x="20.69" class="st0" width="18.62" height="18.62"/>
	<g>
		<path d="M39.31,18c-5.44,0-10.88,0-16.31,0c-0.77,0-1.54,0-2.31,0c0.21,0.21,0.42,0.42,0.63,0.63c0-5.44,0-10.88,0-16.31
			c0-0.77,0-1.54,0-2.31c-0.21,0.21-0.42,0.42-0.63,0.63c5.44,0,10.88,0,16.31,0c0.77,0,1.54,0,2.31,0C39.1,0.42,38.89,0.21,38.69,0
			c0,5.44,0,10.88,0,16.31c0,0.77,0,1.54,0,2.31c0,0.8,1.25,0.81,1.25,0c0-5.44,0-10.88,0-16.31c0-0.77,0-1.54,0-2.31
			c0-0.34-0.29-0.63-0.63-0.63c-5.44,0-10.88,0-16.31,0c-0.77,0-1.54,0-2.31,0c-0.34,0-0.63,0.29-0.63,0.63c0,5.44,0,10.88,0,16.31
			c0,0.77,0,1.54,0,2.31c0,0.34,0.29,0.63,0.63,0.63c5.44,0,10.88,0,16.31,0c0.77,0,1.54,0,2.31,0C40.11,19.25,40.12,18,39.31,18z"
			/>
	</g>
</g>
<g>
	<rect x="20.69" y="20.69" class="st0" width="18.62" height="18.62"/>
	<g>
		<path d="M39.31,38.06c-5.44,0-10.88,0-16.31,0c-0.77,0-1.54,0-2.31,0c0.42,0.42,0.83,0.83,1.25,1.25c0-5.44,0-10.88,0-16.31
			c0-0.77,0-1.54,0-2.31c-0.42,0.42-0.83,0.83-1.25,1.25c5.44,0,10.88,0,16.31,0c0.77,0,1.54,0,2.31,0
			c-0.42-0.42-0.83-0.83-1.25-1.25c0,5.44,0,10.88,0,16.31c0,0.77,0,1.54,0,2.31c0,1.61,2.5,1.61,2.5,0c0-5.44,0-10.88,0-16.31
			c0-0.77,0-1.54,0-2.31c0-0.68-0.57-1.25-1.25-1.25c-5.44,0-10.88,0-16.31,0c-0.77,0-1.54,0-2.31,0c-0.68,0-1.25,0.57-1.25,1.25
			c0,5.44,0,10.88,0,16.31c0,0.77,0,1.54,0,2.31c0,0.68,0.57,1.25,1.25,1.25c5.44,0,10.88,0,16.31,0c0.77,0,1.54,0,2.31,0
			C40.92,40.56,40.92,38.06,39.31,38.06z"/>
	</g>
</g>
<g>
	<rect class="st0" width="18.62" height="18.62"/>
	<g>
		<path d="M18.62,18c-5.44,0-10.88,0-16.31,0C1.54,18,0.77,18,0,18c0.21,0.21,0.42,0.42,0.63,0.63c0-5.44,0-10.88,0-16.31
			c0-0.77,0-1.54,0-2.31C0.42,0.21,0.21,0.42,0,0.63c5.44,0,10.88,0,16.31,0c0.77,0,1.54,0,2.31,0C18.41,0.42,18.2,0.21,18,0
			c0,5.44,0,10.88,0,16.31c0,0.77,0,1.54,0,2.31c0,0.8,1.25,0.81,1.25,0c0-5.44,0-10.88,0-16.31c0-0.77,0-1.54,0-2.31
			c0-0.34-0.29-0.63-0.63-0.63c-5.44,0-10.88,0-16.31,0c-0.77,0-1.54,0-2.31,0c-0.34,0-0.63,0.29-0.63,0.63c0,5.44,0,10.88,0,16.31
			c0,0.77,0,1.54,0,2.31c0,0.34,0.29,0.63,0.63,0.63c5.44,0,10.88,0,16.31,0c0.77,0,1.54,0,2.31,0C19.43,19.25,19.43,18,18.62,18z"
			/>
	</g>
</g>
<g>
	<rect y="20.69" class="st0" width="18.62" height="18.62"/>
	<g>
		<path d="M18.62,38.69c-5.44,0-10.88,0-16.31,0c-0.77,0-1.54,0-2.31,0c0.21,0.21,0.42,0.42,0.63,0.63c0-5.44,0-10.88,0-16.31
			c0-0.77,0-1.54,0-2.31C0.42,20.9,0.21,21.11,0,21.31c5.44,0,10.88,0,16.31,0c0.77,0,1.54,0,2.31,0c-0.21-0.21-0.42-0.42-0.63-0.63
			c0,5.44,0,10.88,0,16.31c0,0.77,0,1.54,0,2.31c0,0.8,1.25,0.81,1.25,0c0-5.44,0-10.88,0-16.31c0-0.77,0-1.54,0-2.31
			c0-0.34-0.29-0.63-0.63-0.63c-5.44,0-10.88,0-16.31,0c-0.77,0-1.54,0-2.31,0c-0.34,0-0.63,0.29-0.63,0.63c0,5.44,0,10.88,0,16.31
			c0,0.77,0,1.54,0,2.31c0,0.34,0.29,0.63,0.63,0.63c5.44,0,10.88,0,16.31,0c0.77,0,1.54,0,2.31,0
			C19.43,39.94,19.43,38.69,18.62,38.69z"/>
	</g>
</g>
<line class="st2" x1="20.69" y1="39.31" x2="39.31" y2="20.69"/>
<path class="st3" d="M18.62,0"/>
<path class="st3" d="M0,0"/>
<g>
	<polygon class="st4" points="0,18.62 18.62,0 18.62,18.62 	"/>
	<g>
		<path d="M0.88,19.5c5.43-5.43,10.87-10.87,16.3-16.3c0.77-0.77,1.55-1.55,2.32-2.32C18.79,0.59,18.08,0.29,17.37,0
			c0,5.44,0,10.88,0,16.31c0,0.77,0,1.54,0,2.31c0.42-0.42,0.83-0.83,1.25-1.25c-5.44,0-10.88,0-16.31,0c-0.77,0-1.54,0-2.31,0
			c-1.61,0-1.61,2.5,0,2.5c5.44,0,10.88,0,16.31,0c0.77,0,1.54,0,2.31,0c0.68,0,1.25-0.57,1.25-1.25c0-5.44,0-10.88,0-16.31
			c0-0.77,0-1.54,0-2.31c0-1.08-1.37-1.65-2.13-0.88C12.3,4.55,6.87,9.98,1.44,15.42c-0.77,0.77-1.55,1.55-2.32,2.32
			C-2.02,18.88-0.26,20.64,0.88,19.5z"/>
	</g>
</g>
<g>
	<polygon class="st4" points="20.69,39.31 39.31,20.69 39.31,39.31 	"/>
	<g>
		<path d="M21.57,40.19c5.43-5.43,10.87-10.87,16.3-16.3c0.77-0.77,1.55-1.55,2.32-2.32c-0.71-0.29-1.42-0.59-2.13-0.88
			c0,5.44,0,10.88,0,16.31c0,0.77,0,1.54,0,2.31c0.42-0.42,0.83-0.83,1.25-1.25c-5.44,0-10.88,0-16.31,0c-0.77,0-1.54,0-2.31,0
			c-1.61,0-1.61,2.5,0,2.5c5.44,0,10.88,0,16.31,0c0.77,0,1.54,0,2.31,0c0.68,0,1.25-0.57,1.25-1.25c0-5.44,0-10.88,0-16.31
			c0-0.77,0-1.54,0-2.31c0-1.08-1.37-1.65-2.13-0.88c-5.43,5.43-10.87,10.87-16.3,16.3c-0.77,0.77-1.55,1.55-2.32,2.32
			C18.67,39.57,20.43,41.33,21.57,40.19z"/>
	</g>
</g>
<g>
</g>
<g>
</g>
<g>
</g>
<g>
</g>
<g>
</g>
<g>
</g>
</svg>
