<?xml version="1.0" encoding="utf-8"?>
<!-- Generator: Adobe Illustrator 24.2.3, SVG Export Plug-In . SVG Version: 6.00 Build 0)  -->
<svg version="1.1" id="Layer_1" xmlns="http://www.w3.org/2000/svg" xmlns:xlink="http://www.w3.org/1999/xlink" x="0px" y="0px"
	 viewBox="0 0 400 300" style="enable-background:new 0 0 400 300;" xml:space="preserve">
<style type="text/css">
	.st0{fill:#FFFFFF;}
	.st1{fill:#181818;}
	.st2{fill:#FEFEFE;}
	.st3{fill:#696969;}
	.st4{fill:#EBEBEB;}
	.st5{opacity:0.31;fill:#181818;}
	.st6{fill:#231F20;}
	.st7{fill:none;stroke:#231F20;stroke-width:0.031;stroke-miterlimit:10;}
	.st8{fill:#CBCBC9;}
	.st9{clip-path:url(#SVGID_2_);fill:#231F20;}
	.st10{clip-path:url(#SVGID_4_);fill:#231F20;}
	.st11{clip-path:url(#SVGID_6_);fill:#231F20;}
	.st12{clip-path:url(#SVGID_8_);fill:none;stroke:#000000;stroke-width:0.053;stroke-linecap:round;stroke-linejoin:round;}
	
		.st13{clip-path:url(#SVGID_8_);fill:none;stroke:#000000;stroke-width:0.266;stroke-linecap:round;stroke-linejoin:round;stroke-miterlimit:10;}
	
		.st14{clip-path:url(#SVGID_8_);fill:none;stroke:#7AA9F4;stroke-width:0.133;stroke-linecap:round;stroke-linejoin:round;stroke-miterlimit:10;}
	.st15{fill:none;stroke:#000000;stroke-width:0.053;stroke-linecap:round;stroke-linejoin:round;}
	.st16{clip-path:url(#SVGID_16_);fill:none;stroke:#000000;stroke-width:0.053;stroke-linecap:round;stroke-linejoin:round;}
	
		.st17{clip-path:url(#SVGID_16_);fill:none;stroke:#000000;stroke-width:0.266;stroke-linecap:round;stroke-linejoin:round;stroke-miterlimit:10;}
	
		.st18{clip-path:url(#SVGID_16_);fill:none;stroke:#7AA9F4;stroke-width:0.133;stroke-linecap:round;stroke-linejoin:round;stroke-miterlimit:10;}
	.st19{fill:none;stroke:#000000;stroke-width:0.1;stroke-linecap:round;stroke-linejoin:round;}
	.st20{fill:none;stroke:#000000;stroke-width:0.25;stroke-linecap:round;stroke-linejoin:round;}
	.st21{clip-path:url(#SVGID_18_);fill:none;stroke:#000000;stroke-width:0.053;stroke-linecap:round;stroke-linejoin:round;}
	.st22{clip-path:url(#SVGID_20_);fill:none;stroke:#000000;stroke-width:0.053;stroke-linecap:round;stroke-linejoin:round;}
	.st23{clip-path:url(#SVGID_22_);fill:none;stroke:#000000;stroke-width:0.1;stroke-linecap:round;stroke-linejoin:round;}
	.st24{clip-path:url(#SVGID_24_);fill:none;stroke:#000000;stroke-width:0.1;stroke-linecap:round;stroke-linejoin:round;}
	.st25{clip-path:url(#SVGID_26_);fill:none;stroke:#000000;stroke-width:0.25;stroke-linecap:round;stroke-linejoin:round;}
	.st26{clip-path:url(#SVGID_28_);fill:none;stroke:#000000;stroke-width:0.25;stroke-linecap:round;stroke-linejoin:round;}
	.st27{clip-path:url(#SVGID_30_);fill:none;stroke:#000000;stroke-width:0.531;stroke-linecap:round;stroke-linejoin:round;}
	.st28{clip-path:url(#SVGID_32_);fill:none;stroke:#000000;stroke-width:0.25;stroke-linecap:round;stroke-linejoin:round;}
	.st29{fill:#FDFEFD;}
	.st30{clip-path:url(#SVGID_34_);fill:none;stroke:#000000;stroke-width:0.053;stroke-linecap:round;stroke-linejoin:round;}
	
		.st31{clip-path:url(#SVGID_34_);fill:none;stroke:#000000;stroke-width:0.266;stroke-linecap:round;stroke-linejoin:round;stroke-miterlimit:10;}
	
		.st32{clip-path:url(#SVGID_34_);fill:none;stroke:#7AA9F4;stroke-width:0.133;stroke-linecap:round;stroke-linejoin:round;stroke-miterlimit:10;}
	.st33{fill:none;stroke:#898989;stroke-width:0.75;stroke-linecap:round;stroke-linejoin:round;stroke-dasharray:0.266,2;}
	.st34{clip-path:url(#SVGID_42_);fill:none;stroke:#000000;stroke-width:0.053;stroke-linecap:round;stroke-linejoin:round;}
	
		.st35{clip-path:url(#SVGID_42_);fill:none;stroke:#000000;stroke-width:0.266;stroke-linecap:round;stroke-linejoin:round;stroke-miterlimit:10;}
	
		.st36{clip-path:url(#SVGID_42_);fill:none;stroke:#7AA9F4;stroke-width:0.133;stroke-linecap:round;stroke-linejoin:round;stroke-miterlimit:10;}
	.st37{clip-path:url(#SVGID_44_);fill:none;stroke:#000000;stroke-width:0.053;stroke-linecap:round;stroke-linejoin:round;}
	.st38{clip-path:url(#SVGID_46_);fill:none;stroke:#000000;stroke-width:0.053;stroke-linecap:round;stroke-linejoin:round;}
	.st39{clip-path:url(#SVGID_48_);fill:none;stroke:#000000;stroke-width:0.1;stroke-linecap:round;stroke-linejoin:round;}
	.st40{clip-path:url(#SVGID_50_);fill:none;stroke:#000000;stroke-width:0.1;stroke-linecap:round;stroke-linejoin:round;}
	.st41{clip-path:url(#SVGID_52_);fill:none;stroke:#000000;stroke-width:0.25;stroke-linecap:round;stroke-linejoin:round;}
	.st42{clip-path:url(#SVGID_54_);fill:none;stroke:#000000;stroke-width:0.25;stroke-linecap:round;stroke-linejoin:round;}
	.st43{clip-path:url(#SVGID_56_);fill:none;stroke:#000000;stroke-width:0.531;stroke-linecap:round;stroke-linejoin:round;}
	.st44{clip-path:url(#SVGID_58_);fill:none;stroke:#000000;stroke-width:0.25;stroke-linecap:round;stroke-linejoin:round;}
	.st45{fill:#FFFFFF;stroke:#000000;stroke-width:0.1;stroke-miterlimit:10;}
	.st46{clip-path:url(#SVGID_60_);fill:none;stroke:#858582;stroke-width:0.964;stroke-miterlimit:10;}
	.st47{clip-path:url(#SVGID_60_);fill:#858582;}
	.st48{fill:#D3F4F4;}
	.st49{stroke:#000000;stroke-width:2;stroke-miterlimit:10;}
</style>
<g>
	<path class="st1" d="M71.61,51.15c-1.58-1.46-3.28-1.34-5.01-0.89c-2.42,0.64-4.68,1.71-6.82,2.98c-2,1.19-4.03,1.31-6.18,0.74
		c-1.19-0.32-2.36-0.71-3.52-1.12c-0.53-0.19-1.08-0.43-1.2-1.09c-0.07-0.36-0.33-0.25-0.54-0.26c-0.49-0.02-0.99-0.01-1.48-0.05
		c-0.26-0.02-0.67,0.05-0.64-0.38c0.02-0.36,0.41-0.55,0.69-0.47c0.77,0.22,1.53,0.01,2.29,0.03c2.18,0.05,4.35,0.09,6.53,0.16
		c0.82,0.02,1.61,0.02,2.32-0.49c-0.12-1.28-0.72-1.99-2.14-2.23c-3.22-0.55-6.44-1.11-9.67-1.51c-2.55-0.32-4.88,0.4-6.95,1.97
		c-1.87,1.41-3.58,3.09-5.89,3.81c-0.41,0.13-0.83,0.25-1.25,0.36c-0.29,0.08-0.54-0.01-0.64-0.29c-0.11-0.33,0.12-0.49,0.39-0.55
		c2.48-0.51,4.4-2.01,6.27-3.57c2.69-2.25,5.8-3.19,9.21-2.46c2.85,0.61,5.76,0.74,8.59,1.34c1.12,0.24,2.13,0.68,2.68,1.81
		c0.53,1.1,0.09,2.15-1.07,2.53c-0.54,0.17-1.08,0.17-1.63,0.17c-2.14-0.01-4.29,0-6.48,0c-0.06,0.14,0.04,0.33,0.26,0.34
		c1.64,0.09,3.04,1.05,4.64,1.26c1.34,0.18,2.65,0.37,3.94-0.3c2.64-1.37,5.24-2.84,8.16-3.6c1.19-0.31,2.39-0.44,3.61-0.15
		c1.04,0.25,1.81,0.87,2.48,1.66c0.3,0.36,0.25,0.63-0.16,0.82c-2.4,1.11-4.53,2.68-6.88,3.88c-0.61,0.31-1.12,0.87-1.76,1.18
		c-1.85,0.89-3.55,2.03-5.43,2.87c-2.92,1.32-5.84,1.4-8.87,0.51c-1.83-0.54-3.66-1.08-5.56-1.3c-2.55-0.3-4.95,0.25-7.28,1.24
		c-0.34,0.14-0.74,0.44-0.95-0.09c-0.18-0.45,0.28-0.56,0.59-0.7c2.1-0.92,4.28-1.55,6.57-1.37c2.61,0.2,5.11,0.91,7.63,1.65
		c1.64,0.48,3.51,0.59,5.3,0.03c1.98-0.62,3.81-1.52,5.62-2.5C64.8,55.26,68,52.97,71.61,51.15z"/>
	<path class="st1" d="M61.43,39.2c-0.09,2.71-1.13,4.85-3.66,6.1c-2.52,1.25-4.96,1.06-7.24-0.55c-2.44-1.72-3.33-5.22-2.16-8.17
		c0.65-1.62,1.58-3.09,2.48-4.58c1.18-1.96,2.32-3.94,3.26-6.03c0.1-0.23,0.18-0.51,0.49-0.55c0.28-0.04,0.42,0.17,0.51,0.39
		c1.44,3.4,3.61,6.4,5.3,9.66C61.01,36.63,61.46,37.85,61.43,39.2z M54.71,27.02c-0.89,1.15-1.5,2.4-2.16,3.55
		c-0.73,1.27-1.49,2.58-2.18,3.9c-0.51,0.99-1.06,1.96-1.38,3.05c-0.7,2.3-0.08,4.41,1.37,6.07c1.13,1.29,2.92,1.8,4.74,1.61
		c2.35-0.24,4.12-1.36,5.02-3.62c0.75-1.9,0.54-3.73-0.38-5.53C58.16,32.99,56.13,30.19,54.71,27.02z"/>
	<path class="st1" d="M58.98,39.52c0.06,1.65-1.27,3.46-2.83,3.81c-0.25,0.06-0.56,0.11-0.67-0.21c-0.12-0.33,0.07-0.52,0.39-0.64
		c1.61-0.59,2.32-1.81,2.4-3.46c0.01-0.28,0.04-0.57,0.39-0.53c0.25,0.02,0.36,0.24,0.33,0.51C58.96,39.17,58.98,39.35,58.98,39.52z
		"/>
</g>
<g>
	<path class="st2" d="M24.11,96.99c0-9.44,0.01-18.88-0.02-28.32c0-0.57,0.11-0.69,0.69-0.69C42.82,68,60.86,68,78.9,67.98
		c0.57,0,0.69,0.11,0.69,0.69c-0.02,18.88-0.02,37.76,0,56.64c0,0.57-0.11,0.69-0.69,0.69c-18.04-0.02-36.08-0.02-54.13,0
		c-0.57,0-0.69-0.11-0.69-0.69C24.11,115.87,24.11,106.43,24.11,96.99z"/>
	<path class="st3" d="M40.87,93.66c-3.81-0.73-5.8-4.07-5.27-7.26c0.52-3.18,3.09-5.26,6.56-5.27c6.59-0.02,13.17-0.01,19.76-0.01
		c1.87,0,3.74,0,5.61,0c1.18,0,1.18,0,1.17,1.19c0,0.14-0.01,0.28-0.01,0.42c-0.25,0.19-0.54,0.11-0.81,0.09
		c-1.56-0.11-3.09,0.14-4.62,0.38c-0.28,0.04-0.56,0.07-0.83,0.03c-2.41-0.36-4.81-0.18-7.23-0.06c-1.58,0.08-3.2,0.14-4.81-0.08
		c-1.73-0.23-3.5-0.19-5.25,0.02c-0.66,0.08-1.31,0.17-1.99,0.06c-0.57-0.1-1.17-0.01-1.74,0.09c-3.22,0.23-4.97,3.96-2.96,6.71
		c0.75,1.03,1.85,1.48,3.07,1.68c2.4,0.01,4.79,0.31,7.19,0.24c0.39-0.01,0.86-0.12,1.07,0.4c0.02,0.72-0.34,1.22-0.93,1.58
		c-1.66,0.05-3.32,0.03-4.98,0.24C42.87,94.24,41.87,93.85,40.87,93.66z"/>
	<path class="st3" d="M68.68,113.94c0.03,1.84,0.17,1.59-1.5,1.59c-8.34,0.01-16.68,0.01-25.02,0c-3.91,0-6.76-2.82-6.64-6.52
		c0.09-2.63,1.94-5.35,5.35-6.01c1.21-0.21,2.41-0.61,3.67-0.39c0.49,0.09,0.99,0.11,1.45,0.35c0.37,0.36,0.52,0.8,0.49,1.3
		c-0.05,0.28-0.21,0.49-0.49,0.48c-0.94-0.03-1.84,0.38-2.82,0.18c-0.95-0.2-1.86,0.21-2.76,0.47c-2.49,0.19-3.82,4.25-1.87,6.5
		c0.76,0.88,1.7,1.4,2.87,1.5c0.75,0.1,1.49,0.16,2.24,0.02c0.73-0.13,1.43,0.23,2.15,0.22c1.83-0.03,3.68,0.19,5.5-0.2
		c0.53-0.11,1.06,0.11,1.57,0.06c2.17-0.2,4.32,0.28,6.49,0.16c0.94-0.05,1.88-0.03,2.83-0.2c0.91-0.16,1.82-0.02,2.7,0.26
		c0.66,0.2,1.33,0.05,1.99,0.1C67.47,113.89,68.09,113.72,68.68,113.94z"/>
	<path class="st4" d="M40.98,82.89c0.37-0.2,0.76-0.13,1.15-0.13c8.85-0.01,17.7-0.02,26.55-0.03c-0.91,0.38-1.87,0.13-2.81,0.17
		c-0.57,0.03-0.88,0.19-0.88,0.82c0.01,2.59,0,5.18,0.01,7.77c0,0.27,0.1,0.54,0.15,0.81c-0.21,0.37-0.56,0.28-0.89,0.27
		c-2.39-0.06-4.79-0.03-7.18-0.03c-0.3-0.13-0.34-0.35-0.21-0.61c0.15-0.31,0.46-0.29,0.74-0.3c1.27-0.03,2.54-0.03,3.81-0.01
		c2.18,0.03,1.76-0.16,1.79-1.78c0.03-1.73,0.03-3.45-0.01-5.18c-0.02-0.78-0.37-1.26-1.13-1.29c-2.34-0.08-4.69-0.14-7.03-0.13
		c-0.42,0-0.59,0.28-0.5,0.74c0.19,1.04-0.24,2.03-0.23,3.07c0.01,0.64-0.64,0.53-1.12,0.52c-0.47-0.01-0.88-0.13-0.85-0.68
		c0.06-1.04-0.39-2.03-0.24-3.08c0.08-0.55-0.33-0.55-0.76-0.55c-1.67,0-3.34,0.09-5.01,0.05c-0.53-0.01-1.06,0-1.59-0.03
		c-0.79-0.06-1.05,0.16-1.11,0.97c-0.05,0.7-0.02,1.39-0.02,2.09c0,1.42-0.03,2.85,0.02,4.27c0.03,0.86,0.18,0.98,1.03,0.99
		c1.48,0.02,2.95-0.02,4.43,0.02c0.41,0.01,0.84,0.05,0.74,0.65c-0.03,0.16-0.15,0.22-0.31,0.17c-0.07-0.52-0.49-0.36-0.78-0.37
		c-2.19-0.02-4.39-0.01-6.58-0.02c-0.33,0-0.67,0.05-0.98-0.11c0.08-2.6,0.11-5.2,0.1-7.8C41.28,83.72,41.01,83.33,40.98,82.89z"/>
	<path class="st4" d="M68.68,113.94c-8.18-0.01-16.36-0.01-24.54-0.03c-1.05,0-2.12,0.15-3.16-0.13c0.53-1.55,0.24-3.15,0.3-4.73
		c0.03-0.78,0-1.56,0.01-2.34c0.01-0.7-0.07-1.3-0.96-1.37c-0.17-0.01-0.29-0.15-0.34-0.33c0.59-0.38,1.26-0.42,1.93-0.43
		c1.2-0.01,2.4-0.01,3.59-0.02c0.28,0,0.65,0.1,0.71-0.37c0.35,0,0.34,0.24,0.27,0.46c-0.07,0.23-0.24,0.32-0.49,0.34
		c-0.5,0.05-1,0.03-1.49,0.03c-0.56,0-0.83,0.25-0.84,0.79c-0.05,2.15-0.05,4.29,0,6.44c0.02,0.61,0.37,1,0.99,1.04
		c2.3,0.12,4.6,0.12,6.9,0.13c0.44,0,0.63-0.23,0.58-0.7c-0.13-1.15,0.31-2.25,0.24-3.41c-0.04-0.67,0.59-0.63,1.06-0.63
		c0.47,0,0.99,0.09,0.93,0.69c-0.13,1.18,0.4,2.31,0.18,3.49c-0.08,0.44,0.25,0.49,0.61,0.53c0.77,0.08,1.53-0.04,2.29-0.07
		c1.56-0.04,3.11,0.11,4.67,0.08c0.97-0.02,1.1-0.13,1.13-1.13c0.05-1.68-0.17-3.34-0.23-5.02c-0.01-0.44-0.04-0.89-0.05-1.33
		c-0.01-0.64-0.37-0.96-0.98-0.93c-0.41,0.02-0.82,0.05-1.23-0.02c-0.55-0.09-0.82-0.34-0.35-0.86c1.33-0.01,2.65,0.03,3.98-0.05
		c0.32-0.02,0.61-0.05,0.79,0.28c-0.12,1.32-0.18,2.65-0.17,3.98c0.01,1.48,0.03,2.95-0.01,4.43c-0.02,0.71,0.24,0.98,0.97,0.99
		C66.86,113.78,67.79,113.55,68.68,113.94z"/>
	<path class="st3" d="M65.16,104.36c-1.34,0.31-2.7,0.19-4.05,0.2c-0.27,0-0.58,0.04-0.62-0.37c-0.28-0.44-0.13-0.82,0.16-1.18
		c0.7-0.4,1.49-0.42,2.26-0.43c0.8-0.01,1.54-0.19,2.26-0.48c1.95-1.33,2.65-3.01,2.07-5c-0.34-1.16-1.11-1.98-2.14-2.57
		c-0.86-0.41-1.81-0.26-2.69-0.43c-1.53-0.3-3.05-0.15-4.57-0.23c-0.58-0.3-0.87-0.74-0.67-1.41c0.01-0.36,0.27-0.38,0.53-0.37
		c2.49,0.08,4.98-0.22,7.46,0.21c2.79,1.17,4.42,3.18,4.32,6.28C69.39,101.46,67.74,103.28,65.16,104.36z"/>
	<path class="st4" d="M45.88,103.21c-0.33-0.28-0.73-0.2-1.11-0.21c-1.3-0.01-2.6,0-3.9,0c0.65-0.15,0.86-0.53,0.85-1.2
		c-0.04-2.31-0.04-4.63,0-6.94c0.01-0.67-0.2-1.06-0.85-1.2c2.37,0,4.75,0,7.12,0c0.31,0,0.61-0.04,0.92-0.07
		c0.01,0.72-0.55,0.61-0.94,0.57c-1.1-0.14-2.2-0.04-3.3-0.08c-0.75-0.03-1.01,0.3-1.02,0.95c-0.04,2.2-0.03,4.41,0,6.61
		c0.01,0.68,0.32,1.02,1.05,0.96c0.28-0.02,0.58-0.03,0.86,0.03C45.87,102.71,46.08,102.85,45.88,103.21z"/>
	<path class="st2" d="M40.98,82.89c0.51,0.03,0.73,0.29,0.72,0.81c-0.04,1.58,0.04,3.16-0.05,4.74c-0.05,0.91,0.03,1.82,0.05,2.74
		c0.01,0.39-0.06,0.73-0.52,0.81c-2.25-0.25-3.96-2.14-4.02-4.42C37.1,85.2,38.69,83.25,40.98,82.89z"/>
	<path class="st2" d="M39.98,105.01c0.03,0,0.06,0,0.08,0c1.63-0.2,1.63-0.2,1.63,1.43c0,2.12-0.01,4.24,0,6.35
		c0,0.53-0.07,0.96-0.72,0.98c-2.02-0.32-3.57-1.95-3.8-3.99C36.95,107.69,38.07,105.78,39.98,105.01z"/>
	<path class="st2" d="M65.49,94.31c1.57,0.88,2.36,2.24,2.36,4.02c0,1.78-0.79,3.14-2.36,4.02c-0.61,0.24-0.81-0.1-0.87-0.62
		c-0.07-0.63-0.05-1.27-0.04-1.91c0.01-1.58-0.04-3.16,0.03-4.73C64.64,94.58,64.72,94.03,65.49,94.31z"/>
	<path class="st4" d="M65.49,94.31C65.06,94.38,65,94.69,65,95.05c0,2.19,0,4.38,0,6.57c0,0.36,0.06,0.67,0.49,0.74
		c-0.88,0.6-1.88,0.6-2.89,0.66c-0.6,0.03-1.23-0.18-1.79,0.21c0.05-0.13,0.1-0.25,0.14-0.38c0.06-0.06,0.12-0.07,0.19-0.01
		c0.72,0,1.44,0,2.16,0c0.2-1.69,0.04-3.39,0.08-5.08c0.02-0.86,0.03-1.7-0.3-2.54c-0.2-0.51-0.43-0.9-0.99-1.01
		c-0.26-0.05-0.46-0.2-0.64-0.37c-0.91-0.01-1.82-0.01-2.74-0.02c-0.33,0-0.67,0.03-0.93-0.24c1.66,0.18,3.33,0.03,4.99,0.08
		C63.73,93.7,64.68,93.74,65.49,94.31z"/>
	<path class="st2" d="M44.5,84.02c-0.03,0.16-0.06,0.35-0.25,0.37c-0.19,0.01-0.18-0.16-0.17-0.3c0.01-0.14,0.05-0.29,0.2-0.32
		C44.46,83.73,44.49,83.88,44.5,84.02z"/>
</g>
<g>
	<path class="st2" d="M288.82,265.5c-0.16-0.03-0.35-0.06-0.37-0.25c-0.01-0.19,0.17-0.18,0.3-0.17c0.14,0.01,0.29,0.05,0.32,0.2
		C289.1,265.46,288.96,265.49,288.82,265.5z"/>
</g>
<g>
	<path class="st5" d="M61.09,102.14c-0.1,2.97-1.24,5.31-4.01,6.68c-2.76,1.37-5.43,1.16-7.92-0.6c-2.67-1.89-3.64-5.71-2.36-8.94
		c0.71-1.77,1.73-3.38,2.71-5.01c1.3-2.14,2.54-4.31,3.57-6.6c0.11-0.25,0.2-0.56,0.54-0.61c0.31-0.04,0.46,0.19,0.56,0.42
		c1.57,3.72,3.95,7,5.8,10.57C60.64,99.33,61.13,100.67,61.09,102.14z M53.74,88.81c-0.98,1.25-1.64,2.62-2.37,3.88
		c-0.8,1.39-1.63,2.82-2.39,4.27c-0.56,1.08-1.16,2.15-1.52,3.33c-0.76,2.51-0.08,4.83,1.5,6.65c1.23,1.41,3.2,1.97,5.18,1.77
		c2.58-0.26,4.51-1.48,5.49-3.96c0.82-2.08,0.59-4.09-0.42-6.05C57.51,95.35,55.3,92.29,53.74,88.81z"/>
	<path class="st5" d="M58.41,102.5c0.07,1.81-1.39,3.79-3.1,4.17c-0.28,0.06-0.61,0.12-0.73-0.23c-0.13-0.36,0.07-0.57,0.43-0.7
		c1.76-0.64,2.54-1.98,2.62-3.79c0.01-0.31,0.04-0.62,0.43-0.58c0.27,0.03,0.39,0.26,0.36,0.56
		C58.39,102.12,58.41,102.31,58.41,102.5z"/>
</g>
<g>
	<path class="st5" d="M258.09,50.14c-0.1,2.97-1.24,5.31-4.01,6.68c-2.76,1.37-5.43,1.16-7.92-0.6c-2.67-1.89-3.64-5.71-2.36-8.94
		c0.71-1.77,1.73-3.38,2.71-5.01c1.3-2.14,2.54-4.31,3.57-6.6c0.11-0.25,0.2-0.56,0.54-0.61c0.31-0.04,0.46,0.19,0.56,0.42
		c1.57,3.72,3.95,7,5.8,10.57C257.64,47.33,258.13,48.67,258.09,50.14z M250.74,36.81c-0.98,1.25-1.64,2.62-2.37,3.88
		c-0.8,1.39-1.63,2.82-2.39,4.27c-0.56,1.08-1.16,2.15-1.52,3.33c-0.76,2.51-0.08,4.83,1.5,6.65c1.23,1.41,3.2,1.97,5.18,1.77
		c2.58-0.26,4.51-1.48,5.49-3.96c0.82-2.08,0.59-4.09-0.42-6.05C254.51,43.35,252.3,40.29,250.74,36.81z"/>
	<path class="st5" d="M255.41,50.5c0.07,1.81-1.39,3.79-3.1,4.17c-0.28,0.06-0.61,0.12-0.73-0.23c-0.13-0.36,0.07-0.57,0.43-0.7
		c1.76-0.64,2.54-1.98,2.62-3.79c0.01-0.31,0.04-0.62,0.43-0.58c0.27,0.03,0.39,0.26,0.36,0.56
		C255.39,50.12,255.41,50.31,255.41,50.5z"/>
</g>
<g>
	<defs>
		<rect id="SVGID_7_" x="96.46" y="28.91" width="269.59" height="227.09"/>
	</defs>
	<clipPath id="SVGID_2_">
		<use xlink:href="#SVGID_7_"  style="overflow:visible;"/>
	</clipPath>
	
		<path style="clip-path:url(#SVGID_2_);fill:none;stroke:#000000;stroke-width:0.053;stroke-linecap:round;stroke-linejoin:round;" d="
		M361.02,59.22c-0.1,0-0.21,0-0.32,0"/>
</g>
<line class="st15" x1="140.77" y1="59.22" x2="140.7" y2="59.22"/>
<line class="st15" x1="361.02" y1="59.22" x2="361.09" y2="59.22"/>
<line class="st15" x1="177.53" y1="71.76" x2="177.46" y2="71.76"/>
<line class="st15" x1="324.26" y1="71.76" x2="324.33" y2="71.76"/>
<g>
	<defs>
		<rect id="SVGID_9_" x="96.46" y="28.91" width="269.59" height="227.09"/>
	</defs>
	<clipPath id="SVGID_4_">
		<use xlink:href="#SVGID_9_"  style="overflow:visible;"/>
	</clipPath>
</g>
<g>
	<defs>
		<rect id="SVGID_11_" x="96.46" y="28.91" width="269.59" height="227.09"/>
	</defs>
	<clipPath id="SVGID_6_">
		<use xlink:href="#SVGID_11_"  style="overflow:visible;"/>
	</clipPath>
</g>
<g>
	<defs>
		<rect id="SVGID_13_" x="96.46" y="28.91" width="269.59" height="227.09"/>
	</defs>
	<clipPath id="SVGID_8_">
		<use xlink:href="#SVGID_13_"  style="overflow:visible;"/>
	</clipPath>
</g>
<g>
	<defs>
		<rect id="SVGID_15_" x="96.46" y="28.91" width="269.59" height="227.09"/>
	</defs>
	<clipPath id="SVGID_10_">
		<use xlink:href="#SVGID_15_"  style="overflow:visible;"/>
	</clipPath>
	
		<path style="clip-path:url(#SVGID_10_);fill:none;stroke:#000000;stroke-width:0.053;stroke-linecap:round;stroke-linejoin:round;" d="
		M361.02,59.22c-0.1,0-0.21,0-0.32,0"/>
</g>
<line class="st19" x1="252.85" y1="113.79" x2="252.85" y2="98.92"/>
<line class="st19" x1="252.85" y1="113.79" x2="253.01" y2="113.79"/>
<line class="st15" x1="141.08" y1="59.22" x2="360.71" y2="59.22"/>
<line class="st19" x1="257.95" y1="97.12" x2="258.11" y2="97.12"/>
<line class="st19" x1="242.77" y1="97.09" x2="244.87" y2="97.09"/>
<line class="st15" x1="361.02" y1="59.22" x2="361.09" y2="59.22"/>
<line class="st19" x1="242.83" y1="96.73" x2="244.94" y2="96.73"/>
<line class="st20" x1="248.17" y1="97.88" x2="248.17" y2="95.89"/>
<line class="st19" x1="244.87" y1="97.09" x2="244.94" y2="96.73"/>
<line class="st19" x1="242.77" y1="97.09" x2="242.83" y2="96.73"/>
<line class="st19" x1="252.91" y1="98.9" x2="251.94" y2="98.9"/>
<line class="st19" x1="249.97" y1="98.9" x2="250.04" y2="98.54"/>
<line class="st19" x1="243.92" y1="97.5" x2="242.77" y2="97.09"/>
<line class="st19" x1="249.97" y1="98.9" x2="249" y2="98.9"/>
<line class="st19" x1="251.94" y1="98.9" x2="257.04" y2="97.09"/>
<g>
	<defs>
		<rect id="SVGID_17_" x="96.46" y="28.91" width="269.59" height="227.09"/>
	</defs>
	<clipPath id="SVGID_12_">
		<use xlink:href="#SVGID_17_"  style="overflow:visible;"/>
	</clipPath>
	
		<path style="clip-path:url(#SVGID_12_);fill:none;stroke:#000000;stroke-width:0.053;stroke-linecap:round;stroke-linejoin:round;" d="
		M285.92,84.37c0.55,0,1.1,0.01,1.64,0.02"/>
</g>
<line class="st15" x1="214.3" y1="84.39" x2="287.49" y2="84.39"/>
<line class="st19" x1="243.96" y1="97.12" x2="243.81" y2="97.12"/>
<g>
	<defs>
		<rect id="SVGID_19_" x="96.46" y="28.91" width="269.59" height="227.09"/>
	</defs>
	<clipPath id="SVGID_14_">
		<use xlink:href="#SVGID_19_"  style="overflow:visible;"/>
	</clipPath>
	
		<path style="clip-path:url(#SVGID_14_);fill:none;stroke:#000000;stroke-width:0.053;stroke-linecap:round;stroke-linejoin:round;" d="
		M285.88,84.37c0.53,0,1.07,0.01,1.61,0.02l0.82-0.43c0.96-0.75,1.94-1.46,2.93-2.13c0.74-0.5,1.48-0.98,2.23-1.45
		c0.74-0.45,1.48-0.89,2.23-1.3c0.74-0.41,1.47-0.8,2.23-1.18c1.44-0.72,2.98-1.41,4.42-1.99c1.41-0.57,2.72-1.03,4.13-1.47
		c0.84-0.27,1.72-0.52,2.6-0.76c1.35-0.36,2.7-0.66,4.05-0.92c0.75-0.14,1.51-0.27,2.27-0.38c0.75-0.11,1.49-0.21,2.23-0.29
		c0.86-0.1,1.73-0.17,2.6-0.23c1.23-0.07,2.46-0.12,3.69-0.12"/>
</g>
<line class="st19" x1="249.06" y1="113.79" x2="248.91" y2="113.79"/>
<line class="st20" x1="254.06" y1="95.89" x2="247.74" y2="95.89"/>
<line class="st19" x1="249.06" y1="98.92" x2="249.06" y2="113.79"/>
<g>
	<defs>
		<rect id="SVGID_21_" x="96.46" y="28.91" width="269.59" height="227.09"/>
	</defs>
	<clipPath id="SVGID_16_">
		<use xlink:href="#SVGID_21_"  style="overflow:visible;"/>
	</clipPath>
	
		<path style="clip-path:url(#SVGID_16_);fill:none;stroke:#000000;stroke-width:0.1;stroke-linecap:round;stroke-linejoin:round;" d="
		M247.74,95.89c-0.65-0.67-1.35-1.3-2.1-1.88c-0.75-0.58-1.56-1.11-2.36-1.62c-0.75-0.48-1.48-0.95-2.23-1.39
		c-1.41-0.82-2.9-1.54-4.38-2.2c-0.89-0.4-1.78-0.77-2.68-1.11c-1.35-0.52-2.72-0.97-4.09-1.37c-0.75-0.21-1.49-0.41-2.23-0.59
		c-0.72-0.17-1.45-0.33-2.17-0.46c-0.88-0.17-1.77-0.32-2.66-0.44c-1.48-0.2-2.97-0.34-4.46-0.41c-1.36-0.06-2.71-0.07-4.07-0.03"/>
</g>
<line class="st19" x1="257.04" y1="97.09" x2="259.15" y2="97.09"/>
<line class="st15" x1="215.91" y1="84.37" x2="285.88" y2="84.37"/>
<line class="st19" x1="259.15" y1="97.09" x2="257.99" y2="97.5"/>
<g>
	<defs>
		<rect id="SVGID_23_" x="96.46" y="28.91" width="269.59" height="227.09"/>
	</defs>
	<clipPath id="SVGID_18_">
		<use xlink:href="#SVGID_23_"  style="overflow:visible;"/>
	</clipPath>
	
		<path style="clip-path:url(#SVGID_18_);fill:none;stroke:#000000;stroke-width:0.1;stroke-linecap:round;stroke-linejoin:round;" d="
		M285.88,84.37c-0.82,0-1.64,0.02-2.46,0.06c-1.49,0.07-2.97,0.21-4.46,0.41c-0.89,0.12-1.77,0.27-2.66,0.44
		c-0.73,0.14-1.45,0.29-2.17,0.46c-0.75,0.18-1.49,0.38-2.23,0.59c-1.37,0.4-2.74,0.85-4.09,1.37c-0.89,0.34-1.78,0.72-2.68,1.11
		c-1.48,0.65-2.97,1.37-4.38,2.2c-0.76,0.44-1.49,0.91-2.23,1.39c-0.8,0.51-1.61,1.04-2.36,1.62c-0.76,0.58-1.45,1.21-2.1,1.88"/>
</g>
<line class="st19" x1="256.98" y1="96.73" x2="259.08" y2="96.73"/>
<line class="st20" x1="248.17" y1="252.06" x2="248.17" y2="111.38"/>
<line class="st19" x1="259.15" y1="97.09" x2="259.08" y2="96.73"/>
<line class="st19" x1="251.94" y1="98.9" x2="251.88" y2="98.54"/>
<line class="st19" x1="257.04" y1="97.09" x2="256.98" y2="96.73"/>
<g>
	<defs>
		<rect id="SVGID_25_" x="96.55" y="28.91" width="269.49" height="227.09"/>
	</defs>
	<clipPath id="SVGID_20_">
		<use xlink:href="#SVGID_25_"  style="overflow:visible;"/>
	</clipPath>
	
		<path style="clip-path:url(#SVGID_20_);fill:none;stroke:#000000;stroke-width:0.25;stroke-linecap:round;stroke-linejoin:round;" d="
		M323.93,71.76c-1.25,0-2.5,0.04-3.76,0.12c-0.87,0.05-1.74,0.13-2.6,0.23c-0.75,0.08-1.49,0.17-2.23,0.29
		c-0.76,0.11-1.51,0.24-2.27,0.38c-1.36,0.26-2.72,0.56-4.05,0.92c-0.86,0.23-1.71,0.49-2.6,0.75c-1.47,0.44-3.04,0.9-4.46,1.48
		c-1.43,0.58-2.72,1.26-4.09,1.99c-0.73,0.38-1.49,0.77-2.23,1.18c-0.76,0.41-1.5,0.85-2.23,1.3c-0.75,0.46-1.49,0.94-2.23,1.45
		c-0.99,0.67-1.97,1.38-2.93,2.12"/>
	
		<path style="clip-path:url(#SVGID_20_);fill:none;stroke:#000000;stroke-width:0.25;stroke-linecap:round;stroke-linejoin:round;" d="
		M253.8,95.89c0.82-0.67,1.64-1.3,2.44-1.88c0.79-0.58,1.56-1.11,2.36-1.62c0.75-0.48,1.53-0.95,2.3-1.39
		c1.44-0.82,2.86-1.54,4.32-2.2c0.88-0.4,1.77-0.77,2.68-1.11c1.35-0.52,2.72-0.97,4.09-1.37c0.74-0.21,1.48-0.41,2.23-0.59
		c0.73-0.17,1.45-0.33,2.17-0.46c0.88-0.17,1.77-0.32,2.66-0.44c1.48-0.2,2.97-0.34,4.46-0.41c0.8-0.04,1.59-0.05,2.39-0.06"/>
</g>
<line class="st19" x1="251.88" y1="98.54" x2="256.98" y2="96.73"/>
<line class="st19" x1="249.06" y1="113.79" x2="243.97" y2="97.11"/>
<line class="st19" x1="248.91" y1="113.79" x2="243.81" y2="97.11"/>
<line class="st19" x1="243.96" y1="97.12" x2="249.06" y2="98.92"/>
<line class="st19" x1="244.87" y1="97.09" x2="249.97" y2="98.89"/>
<line class="st19" x1="244.94" y1="96.73" x2="250.03" y2="98.54"/>
<g>
	<defs>
		<rect id="SVGID_27_" x="96.46" y="28.91" width="269.59" height="227.09"/>
	</defs>
	<clipPath id="SVGID_22_">
		<use xlink:href="#SVGID_27_"  style="overflow:visible;"/>
	</clipPath>
	
		<path style="clip-path:url(#SVGID_22_);fill:none;stroke:#000000;stroke-width:0.25;stroke-linecap:round;stroke-linejoin:round;" d="
		M248,95.89c-0.82-0.67-1.64-1.3-2.44-1.88c-0.79-0.58-1.56-1.11-2.36-1.62c-0.75-0.48-1.53-0.95-2.3-1.39
		c-1.44-0.82-2.86-1.54-4.32-2.2c-0.88-0.4-1.77-0.77-2.68-1.11c-1.35-0.52-2.72-0.97-4.09-1.37c-0.74-0.21-1.48-0.41-2.23-0.59
		c-0.73-0.17-1.45-0.33-2.17-0.46c-0.88-0.17-1.77-0.32-2.66-0.44c-1.48-0.2-2.97-0.34-4.46-0.41c-1.35-0.06-2.71-0.07-4.06-0.03
		l-0.76-0.43c-0.96-0.75-1.94-1.46-2.93-2.13c-0.74-0.5-1.48-0.98-2.23-1.45c-0.74-0.45-1.49-0.89-2.23-1.3
		c-0.74-0.41-1.47-0.8-2.23-1.18c-1.44-0.72-2.98-1.41-4.42-1.99c-1.42-0.57-2.73-1.03-4.13-1.47c-0.84-0.27-1.72-0.52-2.6-0.76
		c-1.35-0.36-2.7-0.66-4.05-0.92c-0.75-0.14-1.51-0.27-2.27-0.38c-0.75-0.11-1.49-0.2-2.23-0.29c-0.86-0.1-1.73-0.17-2.6-0.22
		c-1.24-0.08-2.48-0.12-3.72-0.12"/>
</g>
<line class="st20" x1="288.25" y1="83.95" x2="213.55" y2="83.95"/>
<line class="st15" x1="177.8" y1="72.02" x2="323.28" y2="72.02"/>
<line class="st15" x1="180.99" y1="71.99" x2="320.1" y2="71.99"/>
<line class="st20" x1="324.79" y1="71.58" x2="176.3" y2="71.58"/>
<line class="st19" x1="252.85" y1="98.92" x2="257.95" y2="97.12"/>
<line class="st19" x1="257.95" y1="97.12" x2="252.85" y2="113.79"/>
<g>
	<defs>
		<rect id="SVGID_29_" x="96.46" y="28.91" width="269.59" height="227.09"/>
	</defs>
	<clipPath id="SVGID_24_">
		<use xlink:href="#SVGID_29_"  style="overflow:visible;"/>
	</clipPath>
	
		<line style="clip-path:url(#SVGID_24_);fill:none;stroke:#000000;stroke-width:0.531;stroke-linecap:round;stroke-linejoin:round;" x1="141.5" y1="251.5" x2="606.5" y2="252.5"/>
	
		<line style="clip-path:url(#SVGID_24_);fill:none;stroke:#000000;stroke-width:0.531;stroke-linecap:round;stroke-linejoin:round;" x1="141.5" y1="266.5" x2="606.5" y2="267.5"/>
</g>
<line class="st19" x1="258.11" y1="97.12" x2="253.01" y2="113.79"/>
<line class="st20" x1="253.74" y1="95.89" x2="253.74" y2="97.88"/>
<g>
	<defs>
		<rect id="SVGID_31_" x="96.46" y="28.91" width="269.59" height="227.09"/>
	</defs>
	<clipPath id="SVGID_26_">
		<use xlink:href="#SVGID_31_"  style="overflow:visible;"/>
	</clipPath>
	<path class="st25" d="M325.08,71.43c0.23-0.18,0.47-0.36,0.7-0.53c0.74-0.55,1.48-1.09,2.23-1.6c0.45-0.31,0.91-0.61,1.37-0.9
		c1.02-0.65,2.05-1.27,3.1-1.85c0.74-0.41,1.48-0.8,2.23-1.18c1.54-0.78,3.1-1.47,4.67-2.08c1.76-0.7,3.53-1.3,5.33-1.81
		c1.72-0.49,3.46-0.91,5.21-1.24c1.5-0.28,3-0.5,4.5-0.67c1.49-0.16,2.97-0.27,4.46-0.32c0.61-0.02,1.23-0.03,1.84-0.03"/>
	<path class="st25" d="M176.71,71.43c-0.23-0.18-0.47-0.36-0.7-0.53c-0.74-0.55-1.48-1.09-2.23-1.6c-0.45-0.31-0.91-0.61-1.36-0.9
		c-1.02-0.65-2.05-1.27-3.1-1.85c-0.74-0.41-1.48-0.8-2.23-1.18c-1.54-0.78-3.1-1.47-4.67-2.08c-1.76-0.7-3.53-1.3-5.33-1.81
		c-1.72-0.49-3.46-0.91-5.21-1.24c-1.5-0.28-3-0.5-4.5-0.67c-1.49-0.16-2.97-0.27-4.46-0.32c-0.63-0.02-1.25-0.03-1.88-0.03"/>
</g>
<line class="st20" x1="361.02" y1="59.22" x2="140.77" y2="59.22"/>
<line class="st20" x1="253.74" y1="111.38" x2="253.74" y2="252.06"/>
</svg>
