<?xml version="1.0" encoding="utf-8"?>
<!-- Generator: Adobe Illustrator 24.2.3, SVG Export Plug-In . SVG Version: 6.00 Build 0)  -->
<svg version="1.1" id="Layer_1" xmlns="http://www.w3.org/2000/svg" xmlns:xlink="http://www.w3.org/1999/xlink" x="0px" y="0px"
	 viewBox="0 0 80 80" style="enable-background:new 0 0 80 80;" xml:space="preserve">
<style type="text/css">
	.st0{stroke:#000000;stroke-width:0.25;stroke-miterlimit:10;}
	.st1{fill:#626360;}
	.st2{fill:#FFFFFF;stroke:#000000;stroke-width:0.25;stroke-miterlimit:10;}
</style>
<g>
	<polygon class="st0" points="79.74,45.03 79.74,79.65 44.95,79.65 	"/>
	<polygon class="st0" points="79.74,45.03 79.74,79.65 44.95,79.65 	"/>
	<g>
		<rect x="0.26" y="0.23" class="st1" width="37.65" height="79.42"/>
		<g>
			<path d="M37.91,78.4c-10.98,0-21.96,0-32.94,0c-1.57,0-3.14,0-4.71,0c0.42,0.42,0.83,0.83,1.25,1.25c0-8.94,0-17.87,0-26.81
				c0-14.25,0-28.51,0-42.76c0-3.28,0-6.57,0-9.85C1.09,0.64,0.67,1.06,0.26,1.48c10.98,0,21.96,0,32.94,0c1.57,0,3.14,0,4.71,0
				c-0.42-0.42-0.83-0.83-1.25-1.25c0,8.94,0,17.87,0,26.81c0,14.25,0,28.51,0,42.76c0,3.28,0,6.57,0,9.85c0,1.61,2.5,1.61,2.5,0
				c0-8.94,0-17.87,0-26.81c0-14.25,0-28.51,0-42.76c0-3.28,0-6.57,0-9.85c0-0.68-0.57-1.25-1.25-1.25c-10.98,0-21.96,0-32.94,0
				c-1.57,0-3.14,0-4.71,0c-0.68,0-1.25,0.57-1.25,1.25c0,8.94,0,17.87,0,26.81c0,14.25,0,28.51,0,42.76c0,3.28,0,6.57,0,9.85
				c0,0.68,0.57,1.25,1.25,1.25c10.98,0,21.96,0,32.94,0c1.57,0,3.14,0,4.71,0C39.52,80.9,39.52,78.4,37.91,78.4z"/>
		</g>
	</g>
	<g>
		<rect x="42.09" y="0.23" class="st1" width="37.65" height="37.65"/>
		<g>
			<path d="M79.74,36.63c-10.98,0-21.96,0-32.94,0c-1.57,0-3.14,0-4.71,0c0.42,0.42,0.83,0.83,1.25,1.25c0-10.98,0-21.96,0-32.94
				c0-1.57,0-3.14,0-4.71c-0.42,0.42-0.83,0.83-1.25,1.25c10.98,0,21.96,0,32.94,0c1.57,0,3.14,0,4.71,0
				c-0.42-0.42-0.83-0.83-1.25-1.25c0,10.98,0,21.96,0,32.94c0,1.57,0,3.14,0,4.71c0,1.61,2.5,1.61,2.5,0c0-10.98,0-21.96,0-32.94
				c0-1.57,0-3.14,0-4.71c0-0.68-0.57-1.25-1.25-1.25c-10.98,0-21.96,0-32.94,0c-1.57,0-3.14,0-4.71,0c-0.68,0-1.25,0.57-1.25,1.25
				c0,10.98,0,21.96,0,32.94c0,1.57,0,3.14,0,4.71c0,0.68,0.57,1.25,1.25,1.25c10.98,0,21.96,0,32.94,0c1.57,0,3.14,0,4.71,0
				C81.35,39.13,81.35,36.63,79.74,36.63z"/>
		</g>
	</g>
	<g>
		<g>
			<g>
				<path d="M41.21,42.28c0,10.13,0,20.25,0,30.38c0,1.43,0,2.87,0,4.3c0,1.61,2.5,1.61,2.5,0c0-10.13,0-20.25,0-30.38
					c0-1.43,0-2.87,0-4.3C43.71,40.67,41.21,40.67,41.21,42.28L41.21,42.28z"/>
			</g>
		</g>
		<g>
			<g>
				<path d="M77.32,41.03c-10.19,0-20.38,0-30.57,0c-1.43,0-2.86,0-4.28,0c-1.61,0-1.61,2.5,0,2.5c10.19,0,20.38,0,30.57,0
					c1.43,0,2.86,0,4.28,0C78.92,43.53,78.93,41.03,77.32,41.03L77.32,41.03z"/>
			</g>
		</g>
		<g>
			<g>
				<path d="M43.35,77.84c3.92-3.9,7.84-7.8,11.76-11.7c6.25-6.22,12.51-12.45,18.76-18.67c1.44-1.44,2.89-2.87,4.33-4.31
					c1.14-1.14-0.63-2.9-1.77-1.77c-3.92,3.9-7.84,7.8-11.76,11.7c-6.25,6.22-12.51,12.45-18.76,18.67
					c-1.44,1.44-2.89,2.87-4.33,4.31C40.44,77.21,42.21,78.98,43.35,77.84L43.35,77.84z"/>
			</g>
		</g>
	</g>
	<g>
		<polygon class="st1" points="79.53,45.03 79.53,79.65 44.73,79.65 		"/>
		<g>
			<path d="M78.28,45.03c0,10.1,0,20.19,0,30.29c0,1.44,0,2.89,0,4.33c0.42-0.42,0.83-0.83,1.25-1.25c-10.16,0-20.32,0-30.48,0
				c-1.44,0-2.88,0-4.31,0c0.29,0.71,0.59,1.42,0.88,2.13c3.91-3.89,7.83-7.79,11.74-11.68c6.24-6.21,12.49-12.42,18.73-18.64
				c1.44-1.43,2.88-2.87,4.32-4.3c1.14-1.14-0.63-2.9-1.77-1.77c-3.91,3.89-7.83,7.79-11.74,11.68
				c-6.24,6.21-12.49,12.42-18.73,18.64c-1.44,1.43-2.88,2.87-4.32,4.3c-0.77,0.76-0.2,2.13,0.88,2.13c10.16,0,20.32,0,30.48,0
				c1.44,0,2.88,0,4.31,0c0.68,0,1.25-0.57,1.25-1.25c0-10.1,0-20.19,0-30.29c0-1.44,0-2.89,0-4.33
				C80.78,43.42,78.28,43.42,78.28,45.03z"/>
		</g>
	</g>
</g>
</svg>
