<?xml version="1.0" encoding="utf-8"?>
<!-- Generator: Adobe Illustrator 24.2.3, SVG Export Plug-In . SVG Version: 6.00 Build 0)  -->
<svg version="1.1" xmlns="http://www.w3.org/2000/svg" xmlns:xlink="http://www.w3.org/1999/xlink" x="0px" y="0px"
	 viewBox="0 0 400 300" style="enable-background:new 0 0 400 300;" xml:space="preserve">
<style type="text/css">
	.st0{fill:#FFFFFF;}
	.st1{fill:#181818;}
	.st2{fill:#FEFEFE;}
	.st3{fill:#696969;}
	.st4{fill:#EBEBEB;}
	.st5{opacity:0.31;fill:#181818;}
	.st6{fill:none;stroke:#FFFFFF;stroke-miterlimit:10;}
	.st7{clip-path:url(#SVGID_2_);fill:#231F20;}
	.st8{clip-path:url(#SVGID_4_);fill:#231F20;}
	.st9{fill:#231F20;}
	.st10{clip-path:url(#SVGID_8_);fill:none;stroke:#000000;stroke-width:0.053;stroke-linecap:round;stroke-linejoin:round;}
	
		.st11{clip-path:url(#SVGID_8_);fill:none;stroke:#000000;stroke-width:0.266;stroke-linecap:round;stroke-linejoin:round;stroke-miterlimit:10;}
	
		.st12{clip-path:url(#SVGID_8_);fill:none;stroke:#7AA9F4;stroke-width:0.133;stroke-linecap:round;stroke-linejoin:round;stroke-miterlimit:10;}
	.st13{fill:none;stroke:#000000;stroke-width:0.053;stroke-linecap:round;stroke-linejoin:round;}
	.st14{clip-path:url(#SVGID_16_);fill:none;stroke:#000000;stroke-width:0.053;stroke-linecap:round;stroke-linejoin:round;}
	
		.st15{clip-path:url(#SVGID_16_);fill:none;stroke:#000000;stroke-width:0.266;stroke-linecap:round;stroke-linejoin:round;stroke-miterlimit:10;}
	
		.st16{clip-path:url(#SVGID_16_);fill:none;stroke:#7AA9F4;stroke-width:0.133;stroke-linecap:round;stroke-linejoin:round;stroke-miterlimit:10;}
	.st17{fill:none;stroke:#000000;stroke-width:0.1;stroke-linecap:round;stroke-linejoin:round;}
	.st18{fill:none;stroke:#000000;stroke-width:0.25;stroke-linecap:round;stroke-linejoin:round;}
	.st19{clip-path:url(#SVGID_18_);fill:none;stroke:#000000;stroke-width:0.053;stroke-linecap:round;stroke-linejoin:round;}
	.st20{clip-path:url(#SVGID_20_);fill:none;stroke:#000000;stroke-width:0.053;stroke-linecap:round;stroke-linejoin:round;}
	.st21{clip-path:url(#SVGID_22_);fill:none;stroke:#000000;stroke-width:0.1;stroke-linecap:round;stroke-linejoin:round;}
	.st22{clip-path:url(#SVGID_24_);fill:none;stroke:#000000;stroke-width:0.1;stroke-linecap:round;stroke-linejoin:round;}
	.st23{clip-path:url(#SVGID_26_);fill:none;stroke:#000000;stroke-width:0.25;stroke-linecap:round;stroke-linejoin:round;}
	.st24{clip-path:url(#SVGID_28_);fill:none;stroke:#000000;stroke-width:0.25;stroke-linecap:round;stroke-linejoin:round;}
	.st25{clip-path:url(#SVGID_30_);fill:none;stroke:#000000;stroke-width:0.531;stroke-linecap:round;stroke-linejoin:round;}
	.st26{clip-path:url(#SVGID_32_);fill:none;stroke:#000000;stroke-width:0.25;stroke-linecap:round;stroke-linejoin:round;}
	.st27{fill:#FDFEFD;}
	.st28{clip-path:url(#SVGID_34_);fill:none;stroke:#000000;stroke-width:0.053;stroke-linecap:round;stroke-linejoin:round;}
	
		.st29{clip-path:url(#SVGID_34_);fill:none;stroke:#000000;stroke-width:0.266;stroke-linecap:round;stroke-linejoin:round;stroke-miterlimit:10;}
	
		.st30{clip-path:url(#SVGID_34_);fill:none;stroke:#7AA9F4;stroke-width:0.133;stroke-linecap:round;stroke-linejoin:round;stroke-miterlimit:10;}
	.st31{fill:none;stroke:#898989;stroke-width:0.75;stroke-linecap:round;stroke-linejoin:round;stroke-dasharray:0.266,2;}
	.st32{clip-path:url(#SVGID_42_);fill:none;stroke:#000000;stroke-width:0.053;stroke-linecap:round;stroke-linejoin:round;}
	
		.st33{clip-path:url(#SVGID_42_);fill:none;stroke:#000000;stroke-width:0.266;stroke-linecap:round;stroke-linejoin:round;stroke-miterlimit:10;}
	
		.st34{clip-path:url(#SVGID_42_);fill:none;stroke:#7AA9F4;stroke-width:0.133;stroke-linecap:round;stroke-linejoin:round;stroke-miterlimit:10;}
	.st35{clip-path:url(#SVGID_44_);fill:none;stroke:#000000;stroke-width:0.053;stroke-linecap:round;stroke-linejoin:round;}
	.st36{clip-path:url(#SVGID_46_);fill:none;stroke:#000000;stroke-width:0.053;stroke-linecap:round;stroke-linejoin:round;}
	.st37{clip-path:url(#SVGID_48_);fill:none;stroke:#000000;stroke-width:0.1;stroke-linecap:round;stroke-linejoin:round;}
	.st38{clip-path:url(#SVGID_50_);fill:none;stroke:#000000;stroke-width:0.1;stroke-linecap:round;stroke-linejoin:round;}
	.st39{clip-path:url(#SVGID_52_);fill:none;stroke:#000000;stroke-width:0.25;stroke-linecap:round;stroke-linejoin:round;}
	.st40{clip-path:url(#SVGID_54_);fill:none;stroke:#000000;stroke-width:0.25;stroke-linecap:round;stroke-linejoin:round;}
	.st41{clip-path:url(#SVGID_56_);fill:none;stroke:#000000;stroke-width:0.531;stroke-linecap:round;stroke-linejoin:round;}
	.st42{clip-path:url(#SVGID_58_);fill:none;stroke:#000000;stroke-width:0.25;stroke-linecap:round;stroke-linejoin:round;}
	.st43{fill:#FFFFFF;stroke:#000000;stroke-width:0.1;stroke-miterlimit:10;}
	.st44{clip-path:url(#SVGID_60_);fill:none;stroke:#858582;stroke-width:0.964;stroke-miterlimit:10;}
	.st45{clip-path:url(#SVGID_60_);fill:#858582;}
	.st46{stroke:#000000;stroke-width:2;stroke-miterlimit:10;}
	.st47{fill:#F2EDC9;stroke:#FFFFFF;stroke-miterlimit:10;}
	.st48{fill:#CBCBCA;stroke:#848483;stroke-width:0.25;stroke-miterlimit:10;}
	.st49{fill:none;stroke:#848483;stroke-width:0.25;stroke-linecap:round;stroke-linejoin:round;}
	.st50{fill:#A8A8A6;stroke:#848483;stroke-width:0.25;stroke-miterlimit:10;}
	.st51{fill:#F2E8AE;stroke:#FFFFFF;stroke-miterlimit:10;}
	.st52{fill:#F2EBBC;stroke:#FFFFFF;stroke-miterlimit:10;}
	.st53{fill:#F2F0D6;stroke:#FFFFFF;stroke-miterlimit:10;}
	.st54{fill:#F2EDC9;stroke:#F2EDC9;stroke-miterlimit:10;}
	.st55{fill:none;stroke:#000000;stroke-width:0.3;stroke-linecap:round;stroke-linejoin:round;}
	.st56{fill:none;}
	.st57{fill:#9EA65C;}
	.st58{fill:#B2BA68;}
	.st59{fill:#C7CF73;}
	.st60{fill:#DBE37F;}
	.st61{fill:#EFF78B;}
	.st62{fill:#F2D95E;}
	.st63{fill:#F2E5A1;}
	.st64{fill:#F2F0D6;}
	.st65{fill:#F2EDC9;}
	.st66{fill:#F2EBBC;}
	.st67{fill:#F2E8AE;}
	.st68{fill:#F2B23D;}
</style>
<g id="Layer_1">
	<g>
		<g>
			<g>
				<path d="M228.23,261.52c3.9,0,7.81,0,11.71,0c0.48,0,0.48-0.75,0-0.75c-0.2,0-0.4,0-0.6,0c-0.48,0-0.48,0.75,0,0.75
					c0.2,0,0.4,0,0.6,0c0.48,0,0.48-0.75,0-0.75c-3.9,0-7.81,0-11.71,0C227.75,260.77,227.75,261.52,228.23,261.52L228.23,261.52z"
					/>
			</g>
		</g>
		<g>
			<g>
				<path d="M233.71,255.29c0,3.9,0,7.81,0,11.71c0,0.48,0.75,0.48,0.75,0c0-0.2,0-0.4,0-0.6c0-0.48-0.75-0.48-0.75,0
					c0,0.2,0,0.4,0,0.6c0,0.48,0.75,0.48,0.75,0c0-3.9,0-7.81,0-11.71C234.46,254.81,233.71,254.81,233.71,255.29L233.71,255.29z"/>
			</g>
		</g>
	</g>
	<g>
		<rect x="30.02" y="27.98" class="st6" width="14.67" height="30.94"/>
		<g>
			<defs>
				<rect id="SVGID_1_" x="29.72" y="27.71" width="192.01" height="358.29"/>
			</defs>
			<clipPath id="SVGID_2_">
				<use xlink:href="#SVGID_1_"  style="overflow:visible;"/>
			</clipPath>
			<path class="st7" d="M44.69,58.64h-4.96h-7.9h-1.8c0.09,0.09,0.18,0.19,0.28,0.28v-3.1v-7.38v-8.92v-7.73v-2.54
				c0-0.39,0.06-0.83,0-1.21c0-0.02,0-0.04,0-0.05c-0.09,0.09-0.18,0.18-0.28,0.28h4.96h7.9h1.8c-0.09-0.09-0.19-0.18-0.28-0.28v3.1
				v7.38v8.92v7.73c0,1.25-0.05,2.51,0,3.76c0,0.02,0,0.04,0,0.05c0,0.36,0.55,0.36,0.55,0v-3.1v-7.38v-8.92v-7.73
				c0-1.25,0.05-2.51,0-3.76c0-0.02,0-0.04,0-0.05c0-0.15-0.13-0.28-0.28-0.28h-4.96h-7.9h-1.8c-0.15,0-0.28,0.13-0.28,0.28v3.1
				v7.38v8.92v7.73c0,1.25-0.04,2.51,0,3.76c0,0.02,0,0.04,0,0.05c0,0.15,0.13,0.28,0.28,0.28h4.96h7.9h1.8
				C45.04,59.2,45.04,58.64,44.69,58.64"/>
		</g>
		<rect x="46.31" y="27.98" class="st6" width="14.67" height="14.67"/>
		<g>
			<defs>
				<rect id="SVGID_3_" x="29.72" y="27.71" width="192.01" height="358.29"/>
			</defs>
			<clipPath id="SVGID_4_">
				<use xlink:href="#SVGID_3_"  style="overflow:visible;"/>
			</clipPath>
			<path class="st8" d="M60.98,42.37h-4.96h-7.9h-1.8c0.09,0.09,0.18,0.19,0.28,0.28v-4.96v-7.9v-1.81
				c-0.09,0.09-0.18,0.19-0.28,0.28h4.96h7.9h1.8c-0.09-0.09-0.19-0.19-0.28-0.28v4.96v7.9v1.8c0,0.36,0.55,0.36,0.55,0v-4.96v-7.9
				v-1.81c0-0.15-0.13-0.28-0.28-0.28h-4.96h-7.9h-1.8c-0.15,0-0.28,0.13-0.28,0.28v4.96v7.9v1.8c0,0.15,0.13,0.28,0.28,0.28h4.96
				h7.9h1.8C61.34,42.93,61.34,42.37,60.98,42.37"/>
			<path class="st8" d="M46.18,44.36v4.57v7.26v1.67c0,0.36,0.55,0.36,0.55,0V53.3v-7.26v-1.67C46.74,44.01,46.18,44.01,46.18,44.36
				"/>
			<path class="st8" d="M46.66,58.07c0.45-0.45,0.9-0.89,1.35-1.34c1.08-1.07,2.16-2.15,3.24-3.22c1.31-1.3,2.61-2.6,3.92-3.9
				c1.14-1.13,2.27-2.26,3.41-3.39c0.54-0.54,1.14-1.06,1.65-1.64c0.01-0.01,0.02-0.02,0.02-0.02c0.25-0.25-0.14-0.64-0.39-0.39
				c-0.45,0.45-0.9,0.89-1.35,1.34c-1.08,1.07-2.16,2.15-3.24,3.22c-1.31,1.3-2.61,2.6-3.92,3.9l-3.41,3.39
				c-0.54,0.54-1.14,1.06-1.65,1.64c-0.01,0.01-0.02,0.02-0.02,0.02C46.01,57.93,46.4,58.32,46.66,58.07"/>
			<path class="st8" d="M60.04,44.09h-4.61h-7.28h-1.68c-0.36,0-0.36,0.55,0,0.55h4.61h7.28h1.68
				C60.39,44.64,60.39,44.09,60.04,44.09"/>
		</g>
		<g>
			<defs>
				<rect id="SVGID_5_" x="29.72" y="27.71" width="192.01" height="358.29"/>
			</defs>
			<clipPath id="SVGID_6_">
				<use xlink:href="#SVGID_5_"  style="overflow:visible;"/>
			</clipPath>
		</g>
		<path class="st9" d="M60.62,45.44V50v7.26v1.66c0.09-0.09,0.19-0.19,0.28-0.28h-4.57h-7.31h-1.67c0.06,0.16,0.13,0.32,0.2,0.47
			c0.45-0.45,0.9-0.9,1.35-1.34c1.08-1.07,2.16-2.15,3.24-3.22c1.3-1.29,2.6-2.59,3.9-3.88c1.13-1.12,2.26-2.25,3.39-3.37
			c0.54-0.54,1.15-1.06,1.65-1.64c0.01-0.01,0.02-0.02,0.02-0.02c0.25-0.25-0.14-0.64-0.39-0.39c-0.45,0.45-0.9,0.9-1.35,1.34
			c-1.08,1.07-2.16,2.15-3.24,3.22c-1.3,1.29-2.6,2.59-3.9,3.88c-1.13,1.13-2.26,2.25-3.39,3.37c-0.55,0.54-1.15,1.06-1.65,1.64
			c-0.01,0.01-0.02,0.02-0.02,0.02c-0.17,0.17-0.04,0.47,0.2,0.47h4.57h7.31h1.67c0.15,0,0.28-0.13,0.28-0.28v-4.56V47.1v-1.66
			C61.18,45.08,60.62,45.08,60.62,45.44"/>
	</g>
	<g>
		<defs>
			<rect id="SVGID_7_" x="96.46" y="427.91" width="269.59" height="227.09"/>
		</defs>
		<clipPath id="SVGID_8_">
			<use xlink:href="#SVGID_7_"  style="overflow:visible;"/>
		</clipPath>
		<path class="st10" d="M285.92,198.99c0.55,0,1.1,0.01,1.64,0.02"/>
		<path class="st10" d="M285.88,198.99c0.53,0,1.07,0.01,1.61,0.02l0.82-0.43c0.96-0.75,1.94-1.46,2.93-2.13
			c0.74-0.5,1.48-0.98,2.23-1.45c0.74-0.45,1.48-0.89,2.23-1.3c0.74-0.41,1.47-0.8,2.23-1.18c1.44-0.72,2.98-1.41,4.42-1.99
			c1.41-0.57,2.72-1.04,4.13-1.48c0.84-0.26,1.72-0.52,2.6-0.75c1.35-0.36,2.7-0.66,4.05-0.92c0.75-0.14,1.51-0.27,2.27-0.38
			c0.75-0.11,1.49-0.21,2.23-0.29c0.86-0.1,1.73-0.17,2.6-0.23c1.23-0.07,2.46-0.12,3.69-0.12"/>
		<path class="st10" d="M247.74,210.52c-0.65-0.67-1.35-1.3-2.1-1.88c-0.75-0.58-1.56-1.11-2.36-1.62
			c-0.75-0.48-1.48-0.95-2.23-1.39c-1.41-0.82-2.9-1.55-4.38-2.2c-0.89-0.4-1.78-0.77-2.68-1.12c-1.35-0.51-2.72-0.97-4.09-1.36
			c-0.75-0.21-1.49-0.41-2.23-0.59c-0.72-0.17-1.45-0.33-2.17-0.46c-0.88-0.17-1.77-0.32-2.66-0.44c-1.48-0.2-2.97-0.34-4.46-0.41
			c-1.36-0.06-2.71-0.07-4.07-0.03"/>
		<path class="st10" d="M285.88,198.99c-0.82,0-1.64,0.02-2.46,0.06c-1.49,0.07-2.97,0.21-4.46,0.41c-0.89,0.12-1.77,0.27-2.66,0.44
			c-0.73,0.14-1.45,0.29-2.17,0.46c-0.75,0.18-1.49,0.37-2.23,0.59c-1.37,0.4-2.74,0.85-4.09,1.36c-0.89,0.35-1.78,0.72-2.68,1.12
			c-1.48,0.65-2.97,1.37-4.38,2.2c-0.76,0.44-1.49,0.9-2.23,1.39c-0.8,0.51-1.61,1.04-2.36,1.61c-0.76,0.58-1.45,1.22-2.1,1.88"/>
		<path class="st10" d="M323.93,186.38c-1.25,0-2.5,0.04-3.76,0.12c-0.87,0.06-1.74,0.13-2.6,0.23c-0.75,0.08-1.49,0.18-2.23,0.29
			c-0.76,0.11-1.51,0.24-2.27,0.38c-1.36,0.26-2.72,0.56-4.05,0.92c-0.86,0.23-1.71,0.49-2.6,0.75c-1.47,0.44-3.04,0.9-4.46,1.48
			c-1.43,0.58-2.72,1.27-4.09,1.99c-0.73,0.38-1.49,0.77-2.23,1.18c-0.76,0.41-1.5,0.85-2.23,1.3c-0.75,0.46-1.49,0.94-2.23,1.45
			c-0.99,0.67-1.97,1.38-2.93,2.13"/>
		<path class="st10" d="M253.8,210.52c0.82-0.67,1.64-1.3,2.44-1.88c0.79-0.58,1.56-1.11,2.36-1.62c0.75-0.48,1.53-0.95,2.3-1.39
			c1.44-0.82,2.86-1.55,4.32-2.2c0.88-0.4,1.77-0.77,2.68-1.12c1.35-0.51,2.72-0.97,4.09-1.36c0.74-0.21,1.48-0.41,2.23-0.59
			c0.73-0.17,1.45-0.33,2.17-0.46c0.88-0.17,1.77-0.32,2.66-0.44c1.48-0.2,2.97-0.34,4.46-0.41c0.8-0.04,1.59-0.05,2.39-0.06"/>
		<path class="st10" d="M248,210.52c-0.82-0.67-1.64-1.3-2.44-1.88c-0.79-0.58-1.56-1.11-2.36-1.62c-0.75-0.48-1.53-0.95-2.3-1.39
			c-1.44-0.82-2.86-1.55-4.32-2.2c-0.88-0.4-1.77-0.77-2.68-1.12c-1.35-0.51-2.72-0.97-4.09-1.36c-0.74-0.21-1.48-0.41-2.23-0.59
			c-0.73-0.17-1.45-0.33-2.17-0.46c-0.88-0.17-1.77-0.32-2.66-0.44c-1.48-0.2-2.97-0.34-4.46-0.41c-1.35-0.06-2.71-0.07-4.06-0.03
			l-0.76-0.43c-0.96-0.75-1.94-1.46-2.93-2.13c-0.74-0.5-1.48-0.98-2.23-1.45c-0.74-0.45-1.49-0.89-2.23-1.3
			c-0.74-0.41-1.47-0.8-2.23-1.18c-1.44-0.72-2.98-1.41-4.42-1.99c-1.42-0.57-2.73-1.03-4.13-1.47c-0.84-0.27-1.72-0.52-2.6-0.76
			c-1.35-0.36-2.7-0.66-4.05-0.92c-0.75-0.14-1.51-0.27-2.27-0.38c-0.75-0.11-1.49-0.21-2.23-0.29c-0.86-0.1-1.73-0.17-2.6-0.23
			c-1.24-0.08-2.48-0.11-3.72-0.12"/>
		<path class="st10" d="M325.08,186.06c0.23-0.18,0.47-0.36,0.7-0.53c0.74-0.55,1.48-1.09,2.23-1.6c0.45-0.31,0.91-0.61,1.37-0.9
			c1.02-0.66,2.05-1.27,3.1-1.85c0.74-0.41,1.48-0.8,2.23-1.18c1.54-0.78,3.1-1.47,4.67-2.09c1.76-0.7,3.53-1.29,5.33-1.81
			c1.72-0.49,3.46-0.91,5.21-1.24c1.5-0.28,3-0.5,4.5-0.67c1.49-0.16,2.97-0.26,4.46-0.31c0.61-0.02,1.23-0.03,1.84-0.03"/>
		<path class="st10" d="M176.71,186.06c-0.23-0.18-0.47-0.36-0.7-0.53c-0.74-0.55-1.48-1.09-2.23-1.6c-0.45-0.31-0.91-0.61-1.36-0.9
			c-1.02-0.66-2.05-1.27-3.1-1.85c-0.74-0.41-1.48-0.8-2.23-1.18c-1.54-0.78-3.1-1.47-4.67-2.09c-1.76-0.7-3.53-1.29-5.33-1.81
			c-1.72-0.49-3.46-0.91-5.21-1.24c-1.5-0.28-3-0.5-4.5-0.67c-1.49-0.16-2.97-0.26-4.46-0.31c-0.63-0.02-1.25-0.03-1.88-0.03"/>
		<path class="st10" d="M360.71,173.85c-0.64,0-1.27,0.01-1.91,0.03c-1.49,0.05-2.97,0.15-4.46,0.32c-1.5,0.16-3,0.39-4.5,0.67
			c-1.74,0.33-3.48,0.74-5.21,1.23c-1.79,0.51-3.57,1.12-5.33,1.81c-1.57,0.62-3.13,1.32-4.67,2.09c-0.75,0.38-1.49,0.77-2.23,1.18
			c-1.04,0.58-2.08,1.2-3.1,1.86c-0.46,0.29-0.91,0.59-1.36,0.9c-0.76,0.51-1.5,1.04-2.23,1.6c-0.23,0.18-0.47,0.36-0.7,0.53
			l-0.74,0.33H177.53"/>
		<path class="st11" d="M76.52,247.4c-4.84,6.09-8.48,12.88-10.91,20.21c-1.69,5.1,0.78,9.92,4.91,12.68
			c3.19,2.13,10.08,2.11,13.17-0.59c4.11-3.61,5.45-7.47,3.87-12.83c-2.15-7.29-6-13.59-10.67-19.46"/>
		<path class="st11" d="M45.66,304.39c3.01-3.49,7.64-4.89,11.7-3.54c5.68,1.88,11.42,3.6,17,5.74c2.6,0.99,4.82,0.52,6.73-0.84
			c6.6-4.7,13.09-9.56,19.52-14.49c3.02-2.32,2.92-3.24-0.08-6.09c-3.29,1.31-6.01,3.69-9.11,5.41c-1.9,1.05-3.7,2.34-5.7,3.14
			c-3.18,1.27-6.53,2.37-9.9,0.73c-2.65-1.29-5.53-0.07-8.18-1.03"/>
		<path class="st11" d="M96.73,286.69c-0.95-1.7-2.38-2.96-4.22-1.72c-6.6,4.45-13.76,3.06-20.57,1.57
			c-7.55-1.65-14.43-0.42-21.31,2.3c-1.16,0.45-2.25,1.09-3.55,1.05"/>
		<path class="st11" d="M69.07,269.7c1.07,6.11,2.39,7.43,8.51,8.5"/>
		<path class="st12" d="M250.82,145.47c-3.18,4-5.57,8.46-7.17,13.27c-1.11,3.35,0.51,6.52,3.23,8.32c2.09,1.4,6.61,1.39,8.64-0.39
			c2.7-2.37,3.58-4.91,2.54-8.43c-1.41-4.78-3.94-8.92-7.01-12.77"/>
		<path class="st12" d="M245.93,160.11c0.7,4.01,1.57,4.88,5.59,5.58"/>
	</g>
	<g>
		<defs>
			<rect id="SVGID_15_" x="96.46" y="427.91" width="269.59" height="227.09"/>
		</defs>
		<clipPath id="SVGID_10_">
			<use xlink:href="#SVGID_15_"  style="overflow:visible;"/>
		</clipPath>
		
			<path style="clip-path:url(#SVGID_10_);fill:none;stroke:#000000;stroke-width:0.053;stroke-linecap:round;stroke-linejoin:round;" d="
			M285.92,198.99c0.55,0,1.1,0.01,1.64,0.02"/>
		
			<path style="clip-path:url(#SVGID_10_);fill:none;stroke:#000000;stroke-width:0.053;stroke-linecap:round;stroke-linejoin:round;" d="
			M285.88,198.99c0.53,0,1.07,0.01,1.61,0.02l0.82-0.43c0.96-0.75,1.94-1.46,2.93-2.13c0.74-0.5,1.48-0.98,2.23-1.45
			c0.74-0.45,1.48-0.89,2.23-1.3c0.74-0.41,1.47-0.8,2.23-1.18c1.44-0.72,2.98-1.41,4.42-1.99c1.41-0.57,2.72-1.04,4.13-1.48
			c0.84-0.26,1.72-0.52,2.6-0.75c1.35-0.36,2.7-0.66,4.05-0.92c0.75-0.14,1.51-0.27,2.27-0.38c0.75-0.11,1.49-0.21,2.23-0.29
			c0.86-0.1,1.73-0.17,2.6-0.23c1.23-0.07,2.46-0.12,3.69-0.12"/>
		
			<path style="clip-path:url(#SVGID_10_);fill:none;stroke:#000000;stroke-width:0.053;stroke-linecap:round;stroke-linejoin:round;" d="
			M247.74,210.52c-0.65-0.67-1.35-1.3-2.1-1.88c-0.75-0.58-1.56-1.11-2.36-1.62c-0.75-0.48-1.48-0.95-2.23-1.39
			c-1.41-0.82-2.9-1.55-4.38-2.2c-0.89-0.4-1.78-0.77-2.68-1.12c-1.35-0.51-2.72-0.97-4.09-1.36c-0.75-0.21-1.49-0.41-2.23-0.59
			c-0.72-0.17-1.45-0.33-2.17-0.46c-0.88-0.17-1.77-0.32-2.66-0.44c-1.48-0.2-2.97-0.34-4.46-0.41c-1.36-0.06-2.71-0.07-4.07-0.03"
			/>
		
			<path style="clip-path:url(#SVGID_10_);fill:none;stroke:#000000;stroke-width:0.053;stroke-linecap:round;stroke-linejoin:round;" d="
			M285.88,198.99c-0.82,0-1.64,0.02-2.46,0.06c-1.49,0.07-2.97,0.21-4.46,0.41c-0.89,0.12-1.77,0.27-2.66,0.44
			c-0.73,0.14-1.45,0.29-2.17,0.46c-0.75,0.18-1.49,0.37-2.23,0.59c-1.37,0.4-2.74,0.85-4.09,1.36c-0.89,0.35-1.78,0.72-2.68,1.12
			c-1.48,0.65-2.97,1.37-4.38,2.2c-0.76,0.44-1.49,0.9-2.23,1.39c-0.8,0.51-1.61,1.04-2.36,1.61c-0.76,0.58-1.45,1.22-2.1,1.88"/>
		
			<path style="clip-path:url(#SVGID_10_);fill:none;stroke:#000000;stroke-width:0.053;stroke-linecap:round;stroke-linejoin:round;" d="
			M323.93,186.38c-1.25,0-2.5,0.04-3.76,0.12c-0.87,0.06-1.74,0.13-2.6,0.23c-0.75,0.08-1.49,0.18-2.23,0.29
			c-0.76,0.11-1.51,0.24-2.27,0.38c-1.36,0.26-2.72,0.56-4.05,0.92c-0.86,0.23-1.71,0.49-2.6,0.75c-1.47,0.44-3.04,0.9-4.46,1.48
			c-1.43,0.58-2.72,1.27-4.09,1.99c-0.73,0.38-1.49,0.77-2.23,1.18c-0.76,0.41-1.5,0.85-2.23,1.3c-0.75,0.46-1.49,0.94-2.23,1.45
			c-0.99,0.67-1.97,1.38-2.93,2.13"/>
		
			<path style="clip-path:url(#SVGID_10_);fill:none;stroke:#000000;stroke-width:0.053;stroke-linecap:round;stroke-linejoin:round;" d="
			M253.8,210.52c0.82-0.67,1.64-1.3,2.44-1.88c0.79-0.58,1.56-1.11,2.36-1.62c0.75-0.48,1.53-0.95,2.3-1.39
			c1.44-0.82,2.86-1.55,4.32-2.2c0.88-0.4,1.77-0.77,2.68-1.12c1.35-0.51,2.72-0.97,4.09-1.36c0.74-0.21,1.48-0.41,2.23-0.59
			c0.73-0.17,1.45-0.33,2.17-0.46c0.88-0.17,1.77-0.32,2.66-0.44c1.48-0.2,2.97-0.34,4.46-0.41c0.8-0.04,1.59-0.05,2.39-0.06"/>
		
			<path style="clip-path:url(#SVGID_10_);fill:none;stroke:#000000;stroke-width:0.053;stroke-linecap:round;stroke-linejoin:round;" d="
			M248,210.52c-0.82-0.67-1.64-1.3-2.44-1.88c-0.79-0.58-1.56-1.11-2.36-1.62c-0.75-0.48-1.53-0.95-2.3-1.39
			c-1.44-0.82-2.86-1.55-4.32-2.2c-0.88-0.4-1.77-0.77-2.68-1.12c-1.35-0.51-2.72-0.97-4.09-1.36c-0.74-0.21-1.48-0.41-2.23-0.59
			c-0.73-0.17-1.45-0.33-2.17-0.46c-0.88-0.17-1.77-0.32-2.66-0.44c-1.48-0.2-2.97-0.34-4.46-0.41c-1.35-0.06-2.71-0.07-4.06-0.03
			l-0.76-0.43c-0.96-0.75-1.94-1.46-2.93-2.13c-0.74-0.5-1.48-0.98-2.23-1.45c-0.74-0.45-1.49-0.89-2.23-1.3
			c-0.74-0.41-1.47-0.8-2.23-1.18c-1.44-0.72-2.98-1.41-4.42-1.99c-1.42-0.57-2.73-1.03-4.13-1.47c-0.84-0.27-1.72-0.52-2.6-0.76
			c-1.35-0.36-2.7-0.66-4.05-0.92c-0.75-0.14-1.51-0.27-2.27-0.38c-0.75-0.11-1.49-0.21-2.23-0.29c-0.86-0.1-1.73-0.17-2.6-0.23
			c-1.24-0.08-2.48-0.11-3.72-0.12"/>
		
			<path style="clip-path:url(#SVGID_10_);fill:none;stroke:#000000;stroke-width:0.053;stroke-linecap:round;stroke-linejoin:round;" d="
			M325.08,186.06c0.23-0.18,0.47-0.36,0.7-0.53c0.74-0.55,1.48-1.09,2.23-1.6c0.45-0.31,0.91-0.61,1.37-0.9
			c1.02-0.66,2.05-1.27,3.1-1.85c0.74-0.41,1.48-0.8,2.23-1.18c1.54-0.78,3.1-1.47,4.67-2.09c1.76-0.7,3.53-1.29,5.33-1.81
			c1.72-0.49,3.46-0.91,5.21-1.24c1.5-0.28,3-0.5,4.5-0.67c1.49-0.16,2.97-0.26,4.46-0.31c0.61-0.02,1.23-0.03,1.84-0.03"/>
		
			<path style="clip-path:url(#SVGID_10_);fill:none;stroke:#000000;stroke-width:0.053;stroke-linecap:round;stroke-linejoin:round;" d="
			M176.71,186.06c-0.23-0.18-0.47-0.36-0.7-0.53c-0.74-0.55-1.48-1.09-2.23-1.6c-0.45-0.31-0.91-0.61-1.36-0.9
			c-1.02-0.66-2.05-1.27-3.1-1.85c-0.74-0.41-1.48-0.8-2.23-1.18c-1.54-0.78-3.1-1.47-4.67-2.09c-1.76-0.7-3.53-1.29-5.33-1.81
			c-1.72-0.49-3.46-0.91-5.21-1.24c-1.5-0.28-3-0.5-4.5-0.67c-1.49-0.16-2.97-0.26-4.46-0.31c-0.63-0.02-1.25-0.03-1.88-0.03"/>
		
			<path style="clip-path:url(#SVGID_10_);fill:none;stroke:#000000;stroke-width:0.053;stroke-linecap:round;stroke-linejoin:round;" d="
			M360.71,173.85c-0.64,0-1.27,0.01-1.91,0.03c-1.49,0.05-2.97,0.15-4.46,0.32c-1.5,0.16-3,0.39-4.5,0.67
			c-1.74,0.33-3.48,0.74-5.21,1.23c-1.79,0.51-3.57,1.12-5.33,1.81c-1.57,0.62-3.13,1.32-4.67,2.09c-0.75,0.38-1.49,0.77-2.23,1.18
			c-1.04,0.58-2.08,1.2-3.1,1.86c-0.46,0.29-0.91,0.59-1.36,0.9c-0.76,0.51-1.5,1.04-2.23,1.6c-0.23,0.18-0.47,0.36-0.7,0.53
			l-0.74,0.33H177.53"/>
		
			<path style="clip-path:url(#SVGID_10_);fill:none;stroke:#000000;stroke-width:0.266;stroke-linecap:round;stroke-linejoin:round;stroke-miterlimit:10;" d="
			M76.52,247.4c-4.84,6.09-8.48,12.88-10.91,20.21c-1.69,5.1,0.78,9.92,4.91,12.68c3.19,2.13,10.08,2.11,13.17-0.59
			c4.11-3.61,5.45-7.47,3.87-12.83c-2.15-7.29-6-13.59-10.67-19.46"/>
		
			<path style="clip-path:url(#SVGID_10_);fill:none;stroke:#000000;stroke-width:0.266;stroke-linecap:round;stroke-linejoin:round;stroke-miterlimit:10;" d="
			M45.66,304.39c3.01-3.49,7.64-4.89,11.7-3.54c5.68,1.88,11.42,3.6,17,5.74c2.6,0.99,4.82,0.52,6.73-0.84
			c6.6-4.7,13.09-9.56,19.52-14.49c3.02-2.32,2.92-3.24-0.08-6.09c-3.29,1.31-6.01,3.69-9.11,5.41c-1.9,1.05-3.7,2.34-5.7,3.14
			c-3.18,1.27-6.53,2.37-9.9,0.73c-2.65-1.29-5.53-0.07-8.18-1.03"/>
		
			<path style="clip-path:url(#SVGID_10_);fill:none;stroke:#000000;stroke-width:0.266;stroke-linecap:round;stroke-linejoin:round;stroke-miterlimit:10;" d="
			M96.73,286.69c-0.95-1.7-2.38-2.96-4.22-1.72c-6.6,4.45-13.76,3.06-20.57,1.57c-7.55-1.65-14.43-0.42-21.31,2.3
			c-1.16,0.45-2.25,1.09-3.55,1.05"/>
		
			<path style="clip-path:url(#SVGID_10_);fill:none;stroke:#000000;stroke-width:0.266;stroke-linecap:round;stroke-linejoin:round;stroke-miterlimit:10;" d="
			M69.07,269.7c1.07,6.11,2.39,7.43,8.51,8.5"/>
		
			<path style="clip-path:url(#SVGID_10_);fill:none;stroke:#7AA9F4;stroke-width:0.133;stroke-linecap:round;stroke-linejoin:round;stroke-miterlimit:10;" d="
			M250.82,145.47c-3.18,4-5.57,8.46-7.17,13.27c-1.11,3.35,0.51,6.52,3.23,8.32c2.09,1.4,6.61,1.39,8.64-0.39
			c2.7-2.37,3.58-4.91,2.54-8.43c-1.41-4.78-3.94-8.92-7.01-12.77"/>
		
			<path style="clip-path:url(#SVGID_10_);fill:none;stroke:#7AA9F4;stroke-width:0.133;stroke-linecap:round;stroke-linejoin:round;stroke-miterlimit:10;" d="
			M245.93,160.11c0.7,4.01,1.57,4.88,5.59,5.58"/>
	</g>
</g>
<g id="Make2D::Visible::Curves">
	<polygon class="st47" points="195.2,170.55 149.55,162.36 149.55,121.53 	"/>
	<polygon class="st48" points="365.95,179.16 363.82,179.26 327.53,133.75 329.71,133.62 	"/>
	<line class="st49" x1="324.79" y1="133.11" x2="363.82" y2="181.95"/>
	<line class="st49" x1="364.96" y1="179.2" x2="364.96" y2="183.38"/>
	<line class="st49" x1="364.96" y1="141.8" x2="364.96" y2="140.01"/>
	<polygon class="st50" points="298.15,145.66 298.15,183.68 258.53,137.17 	"/>
	<line class="st49" x1="294.74" y1="185.3" x2="253.8" y2="137.45"/>
	<line class="st49" x1="295.93" y1="186.7" x2="294.74" y2="185.3"/>
	<line class="st49" x1="364.96" y1="183.38" x2="295.93" y2="186.7"/>
	<line class="st49" x1="365.95" y1="142.03" x2="365.95" y2="179.15"/>
	<line class="st49" x1="363.82" y1="181.95" x2="364.96" y2="183.38"/>
	<line class="st49" x1="239.8" y1="136.45" x2="237.22" y2="133.44"/>
	<line class="st49" x1="322.33" y1="130.03" x2="251.22" y2="134.44"/>
	<line class="st49" x1="322.33" y1="130.03" x2="324.79" y2="133.11"/>
	<line class="st49" x1="322.33" y1="130.03" x2="364.96" y2="140.01"/>
	<polygon class="st51" points="195,92.85 195,171.55 149.35,122.53 	"/>
	<polygon class="st47" points="195.2,91.85 149.55,121.53 149.55,80.69 	"/>
	<line class="st49" x1="149.56" y1="118.25" x2="149.56" y2="118.25"/>
	<polygon class="st52" points="149.55,162.36 149.55,203.2 100.32,195.98 100.32,153.54 	"/>
	<polygon class="st47" points="195.2,170.55 149.55,203.2 149.55,162.36 	"/>
	<polygon class="st51" points="195.2,170.55 195.2,249.25 149.55,203.2 	"/>
	<polygon class="st47" points="195.2,249.25 149.55,244.04 149.55,203.2 	"/>
	<line class="st49" x1="149.56" y1="199.44" x2="149.56" y2="199.44"/>
	<polygon class="st52" points="100.32,153.54 100.32,195.98 94.52,196.27 94.52,153.9 	"/>
	<polygon class="st53" points="149.55,80.69 149.55,162.36 100.32,153.54 100.32,68.65 	"/>
	<g>
		<polygon class="st53" points="100.32,68.65 100.32,153.54 94.52,153.9 94.52,69.14 		"/>
	</g>
	<polygon class="st52" points="149.55,203.2 149.55,244.04 100.32,238.42 100.32,195.98 	"/>
	<polygon class="st52" points="100.32,195.98 100.32,238.42 94.52,238.65 94.52,196.27 	"/>
	<line class="st49" x1="365.95" y1="142.03" x2="329.72" y2="133.62"/>
	<polygon class="st48" points="357.92,180.76 298.15,183.68 298.15,145.66 328.32,143.9 	"/>
	<polygon class="st50" points="328.32,143.9 298.15,145.66 258.53,137.17 319.9,133.42 	"/>
	<g>
		<polygon class="st54" points="196.2,250.25 190.68,250.44 144.9,245.25 150.55,245.04 		"/>
	</g>
	<g>
		<polygon class="st54" points="146.2,244.25 140.68,244.44 94.9,239.25 100.55,239.04 		"/>
	</g>
</g>
<g id="dimention">
	<g>
		<line class="st55" x1="85.24" y1="67.89" x2="82.98" y2="67.89"/>
		<line class="st55" x1="85.24" y1="153.24" x2="82.98" y2="153.24"/>
		<line class="st55" x1="83.73" y1="67.89" x2="83.73" y2="153.24"/>
		<polyline points="84.55,68.58 83.04,67.07 82.92,67.19 84.43,68.7 84.55,68.58 		"/>
		<polyline points="82.92,152.55 84.43,154.06 84.55,153.94 83.04,152.43 82.92,152.55 		"/>
		<g>
			<path d="M79.09,130.64l-0.16-1.21c0.69-0.14,1.18-0.38,1.49-0.71c0.3-0.33,0.45-0.74,0.45-1.22c0-0.57-0.2-1.05-0.59-1.45
				c-0.4-0.39-0.88-0.59-1.47-0.59c-0.56,0-1.02,0.18-1.38,0.55c-0.36,0.36-0.54,0.83-0.54,1.39c0,0.23,0.04,0.51,0.13,0.86
				l-1.06-0.13c0.01-0.08,0.01-0.15,0.01-0.2c0-0.52-0.13-0.98-0.4-1.39c-0.27-0.41-0.68-0.62-1.25-0.62c-0.44,0-0.81,0.15-1.1,0.45
				c-0.29,0.3-0.44,0.69-0.44,1.17c0,0.47,0.15,0.86,0.44,1.18c0.3,0.31,0.74,0.52,1.33,0.61l-0.22,1.21
				c-0.81-0.15-1.44-0.49-1.89-1.01c-0.45-0.53-0.67-1.18-0.67-1.96c0-0.54,0.12-1.04,0.35-1.49c0.23-0.45,0.55-0.8,0.95-1.04
				c0.4-0.24,0.82-0.36,1.27-0.36c0.43,0,0.82,0.11,1.17,0.34c0.35,0.23,0.63,0.57,0.84,1.02c0.13-0.58,0.41-1.04,0.84-1.36
				s0.96-0.49,1.59-0.49c0.86,0,1.59,0.31,2.19,0.94c0.6,0.63,0.9,1.42,0.9,2.38c0,0.87-0.26,1.59-0.77,2.16
				C80.58,130.23,79.91,130.56,79.09,130.64z"/>
			<path d="M74.23,116.68l0.09,1.21c-0.48,0.11-0.82,0.26-1.04,0.46c-0.35,0.33-0.52,0.73-0.52,1.21c0,0.39,0.11,0.73,0.32,1.02
				c0.28,0.38,0.68,0.68,1.22,0.9c0.53,0.22,1.3,0.33,2.28,0.34c-0.44-0.29-0.77-0.65-0.99-1.07c-0.22-0.42-0.32-0.86-0.32-1.33
				c0-0.81,0.3-1.5,0.89-2.06c0.6-0.57,1.36-0.85,2.31-0.85c0.62,0,1.2,0.13,1.73,0.4c0.53,0.27,0.94,0.63,1.22,1.1
				c0.28,0.47,0.42,1,0.42,1.59c0,1.01-0.37,1.83-1.11,2.47c-0.74,0.64-1.97,0.96-3.67,0.96c-1.91,0-3.3-0.35-4.16-1.06
				c-0.75-0.62-1.13-1.44-1.13-2.49c0-0.78,0.22-1.41,0.65-1.91C72.86,117.08,73.47,116.78,74.23,116.68z M78.49,121.63
				c0.42,0,0.82-0.09,1.2-0.27c0.38-0.18,0.67-0.43,0.87-0.74c0.2-0.32,0.3-0.65,0.3-1c0-0.51-0.21-0.95-0.62-1.32
				c-0.41-0.37-0.97-0.55-1.68-0.55c-0.68,0-1.22,0.18-1.61,0.55c-0.39,0.36-0.59,0.82-0.59,1.37c0,0.55,0.2,1.01,0.59,1.39
				C77.34,121.44,77.85,121.63,78.49,121.63z"/>
			<path d="M81.69,114.62h-1.38v-1.38h1.38V114.62z"/>
			<path d="M80.84,110.49c-0.82,0.65-2.16,0.98-4.02,0.98c-1.17,0-2.11-0.12-2.82-0.36c-0.71-0.24-1.26-0.6-1.65-1.07
				c-0.39-0.47-0.58-1.07-0.58-1.79c0-0.53,0.11-0.99,0.32-1.39c0.21-0.4,0.52-0.73,0.92-0.99c0.4-0.26,0.89-0.46,1.47-0.61
				c0.58-0.15,1.36-0.22,2.33-0.22c1.16,0,2.09,0.12,2.81,0.36c0.71,0.24,1.26,0.59,1.65,1.07c0.39,0.47,0.58,1.07,0.58,1.8
				C81.86,109.2,81.52,109.95,80.84,110.49L80.84,110.49z M73.49,109.59c0.6,0.42,1.71,0.63,3.33,0.63c1.62,0,2.7-0.19,3.24-0.57
				c0.54-0.38,0.81-0.85,0.81-1.4c0-0.56-0.27-1.03-0.81-1.4c-0.54-0.38-1.62-0.57-3.23-0.57c-1.63,0-2.71,0.19-3.24,0.57
				c-0.53,0.38-0.8,0.85-0.8,1.42C72.78,108.82,73.02,109.26,73.49,109.59L73.49,109.59z"/>
			<path d="M80.84,102.82c-0.82,0.65-2.16,0.98-4.02,0.98c-1.17,0-2.11-0.12-2.82-0.36c-0.71-0.24-1.26-0.6-1.65-1.07
				c-0.39-0.47-0.58-1.07-0.58-1.79c0-0.53,0.11-0.99,0.32-1.39c0.21-0.4,0.52-0.73,0.92-0.99c0.4-0.26,0.89-0.46,1.47-0.61
				c0.58-0.15,1.36-0.22,2.33-0.22c1.16,0,2.09,0.12,2.81,0.36c0.71,0.24,1.26,0.59,1.65,1.07c0.39,0.47,0.58,1.07,0.58,1.8
				C81.86,101.53,81.52,102.28,80.84,102.82L80.84,102.82z M73.49,101.92c0.6,0.42,1.71,0.63,3.33,0.63c1.62,0,2.7-0.19,3.24-0.57
				c0.54-0.38,0.81-0.85,0.81-1.4c0-0.56-0.27-1.03-0.81-1.4c-0.54-0.38-1.62-0.57-3.23-0.57c-1.63,0-2.71,0.19-3.24,0.57
				c-0.53,0.38-0.8,0.85-0.8,1.42C72.78,101.15,73.02,101.59,73.49,101.92L73.49,101.92z"/>
		</g>
	</g>
	<g>
		<line class="st55" x1="103.71" y1="48.11" x2="104.26" y2="45.92"/>
		<line class="st55" x1="152.94" y1="60.45" x2="153.49" y2="58.26"/>
		<line class="st55" x1="104.07" y1="46.65" x2="153.31" y2="58.99"/>
		<polyline points="104.94,46.03 103.11,47.13 103.2,47.27 105.03,46.17 104.94,46.03 		"/>
		<polyline points="152.44,59.61 154.27,58.51 154.18,58.37 152.35,59.46 152.44,59.61 		"/>
		<g>
			<path d="M115.77,44.89l1.17,0.13c-0.03,0.68,0.07,1.19,0.32,1.56c0.24,0.36,0.59,0.6,1.04,0.71c0.53,0.13,1.03,0.06,1.49-0.22
				c0.46-0.28,0.76-0.69,0.9-1.24c0.13-0.52,0.07-0.99-0.19-1.42c-0.26-0.42-0.65-0.7-1.17-0.83c-0.21-0.05-0.49-0.08-0.83-0.07
				l0.38-0.96c0.07,0.03,0.13,0.05,0.18,0.06c0.48,0.12,0.95,0.1,1.4-0.05c0.45-0.16,0.74-0.5,0.87-1.02
				c0.1-0.42,0.05-0.8-0.16-1.14c-0.21-0.34-0.54-0.57-0.99-0.68c-0.44-0.11-0.84-0.06-1.21,0.14c-0.36,0.2-0.66,0.57-0.88,1.11
				L117,40.47c0.33-0.73,0.79-1.24,1.39-1.53c0.6-0.29,1.26-0.35,1.99-0.17c0.5,0.13,0.94,0.35,1.31,0.67
				c0.37,0.32,0.62,0.7,0.75,1.13c0.13,0.43,0.14,0.86,0.04,1.28c-0.1,0.4-0.3,0.74-0.59,1.01c-0.3,0.27-0.68,0.45-1.15,0.54
				c0.51,0.26,0.87,0.63,1.08,1.1c0.2,0.47,0.23,1.01,0.08,1.6c-0.2,0.81-0.67,1.42-1.4,1.83c-0.73,0.41-1.54,0.51-2.44,0.28
				c-0.81-0.2-1.42-0.61-1.84-1.23C115.81,46.38,115.66,45.67,115.77,44.89z"/>
			<path d="M129.96,43.62l-1.15-0.19c0.01-0.47-0.05-0.83-0.19-1.08c-0.23-0.4-0.56-0.66-1.01-0.77c-0.36-0.09-0.7-0.07-1.03,0.06
				c-0.42,0.17-0.8,0.48-1.13,0.93c-0.33,0.45-0.62,1.13-0.86,2.06c0.38-0.35,0.79-0.57,1.23-0.68c0.45-0.1,0.88-0.1,1.32,0.01
				c0.76,0.19,1.33,0.63,1.72,1.32c0.39,0.69,0.48,1.48,0.26,2.36c-0.15,0.58-0.41,1.09-0.78,1.52c-0.37,0.44-0.81,0.73-1.32,0.89
				c-0.5,0.16-1.03,0.16-1.59,0.02c-0.94-0.24-1.63-0.78-2.05-1.62c-0.42-0.84-0.43-2.06-0.03-3.66c0.45-1.78,1.1-3,1.96-3.65
				c0.75-0.56,1.62-0.72,2.59-0.48c0.73,0.18,1.27,0.54,1.63,1.06C129.91,42.25,130.05,42.88,129.96,43.62z M124.33,46.44
				c-0.1,0.39-0.11,0.79-0.03,1.18c0.08,0.4,0.24,0.73,0.49,0.99c0.25,0.26,0.54,0.43,0.87,0.52c0.48,0.12,0.94,0.03,1.38-0.27
				c0.44-0.3,0.74-0.78,0.91-1.45c0.16-0.64,0.12-1.18-0.13-1.64c-0.25-0.45-0.63-0.74-1.15-0.87c-0.51-0.13-0.99-0.05-1.44,0.22
				C124.78,45.41,124.48,45.85,124.33,46.44z"/>
			<path d="M130.14,51.08l0.32-1.29l1.29,0.32l-0.32,1.29L130.14,51.08z"/>
			<path d="M134.2,51.25c-0.42-0.92-0.41-2.25,0.03-3.98c0.27-1.09,0.61-1.94,1-2.55c0.39-0.61,0.85-1.04,1.39-1.29
				c0.53-0.25,1.14-0.29,1.81-0.12c0.5,0.12,0.91,0.33,1.23,0.63c0.32,0.29,0.56,0.66,0.71,1.1c0.15,0.44,0.23,0.94,0.23,1.52
				c0,0.57-0.11,1.32-0.34,2.23c-0.27,1.08-0.6,1.93-0.99,2.54c-0.39,0.61-0.85,1.04-1.39,1.29c-0.53,0.25-1.14,0.29-1.82,0.12
				C135.17,52.51,134.55,52.01,134.2,51.25L134.2,51.25z M136.77,44.58c-0.53,0.46-0.99,1.46-1.37,2.97
				c-0.38,1.52-0.46,2.57-0.23,3.16c0.23,0.59,0.6,0.95,1.12,1.08c0.52,0.13,1.02-0.01,1.5-0.43c0.48-0.42,0.91-1.38,1.29-2.89
				c0.38-1.52,0.46-2.57,0.23-3.16c-0.23-0.59-0.61-0.95-1.14-1.08C137.66,44.1,137.19,44.22,136.77,44.58L136.77,44.58z"/>
			<path d="M141.38,53.04c-0.42-0.92-0.41-2.25,0.03-3.98c0.27-1.09,0.61-1.94,1-2.55c0.39-0.61,0.85-1.04,1.39-1.29
				c0.53-0.25,1.14-0.29,1.81-0.12c0.5,0.12,0.91,0.33,1.23,0.63c0.32,0.29,0.56,0.66,0.71,1.1c0.15,0.44,0.23,0.94,0.23,1.52
				c0,0.57-0.11,1.32-0.34,2.23c-0.27,1.08-0.6,1.93-0.99,2.54c-0.39,0.61-0.85,1.04-1.39,1.29c-0.53,0.25-1.14,0.29-1.82,0.12
				C142.35,54.3,141.73,53.81,141.38,53.04L141.38,53.04z M143.94,46.38c-0.53,0.46-0.99,1.46-1.37,2.97
				c-0.38,1.52-0.46,2.57-0.23,3.16c0.23,0.59,0.6,0.95,1.12,1.08c0.52,0.13,1.02-0.01,1.5-0.43c0.48-0.42,0.91-1.38,1.29-2.89
				c0.38-1.52,0.46-2.57,0.23-3.16c-0.23-0.59-0.61-0.95-1.14-1.08C144.83,45.9,144.36,46.02,143.94,46.38L143.94,46.38z"/>
		</g>
	</g>
</g>
<g id="coler_palet">
	<g>
		<rect x="136.35" y="250.83" class="st56" width="43.17" height="24.17"/>
		<path d="M136.13,269l7.54-17.84l7.22,17.84h-1.7l-2.19-5.81h-7.01l-2.27,5.81H136.13z M140.52,261.85h5.98l-2.93-7.46
			L140.52,261.85z"/>
	</g>
	<g>
		<rect x="302.71" y="249.99" class="st56" width="43.17" height="21.51"/>
		<path d="M311.03,257.74c2.24,0.29,3.96,1.23,3.96,3.38c0,1.44-0.79,2.55-2.08,3.25c-1.13,0.6-2.62,0.85-4.37,0.85h-5.04v-0.62
			c1.88-0.13,2.02-0.28,2.02-2.08v-8.51c0-1.83-0.1-1.96-1.83-2.08v-0.64h5.8c1.67,0,2.62,0.25,3.35,0.75
			c0.76,0.51,1.23,1.45,1.23,2.45c0,2.04-1.77,2.87-3.05,3.18V257.74z M308.51,257.47c2.37,0,3.37-0.92,3.37-2.7
			c0-1.54-0.86-2.75-2.86-2.75c-0.53,0-1.03,0.12-1.22,0.26c-0.19,0.13-0.25,0.38-0.25,1.04v4.15H308.51z M307.56,262.48
			c0,1.6,0.42,2.01,1.8,1.99c1.71-0.03,3.27-0.91,3.27-3.12c0-2.15-1.49-3.13-4.16-3.13h-0.91V262.48z"/>
	</g>
</g>
<g id="CIRCLE">
</g>
</svg>
