<?xml version="1.0" encoding="utf-8"?>
<!-- Generator: Adobe Illustrator 24.2.3, SVG Export Plug-In . SVG Version: 6.00 Build 0)  -->
<svg version="1.1" id="Layer_1" xmlns="http://www.w3.org/2000/svg" xmlns:xlink="http://www.w3.org/1999/xlink" x="0px" y="0px"
	 viewBox="0 0 80 80" style="enable-background:new 0 0 80 80;" xml:space="preserve">
<style type="text/css">
	.st0{fill:#626360;}
	.st1{fill:#FFFFFF;}
</style>
<g>
	<rect x="42.31" class="st0" width="37.69" height="37.69"/>
	<g>
		<path d="M80,36.44c-11,0-22,0-33.01,0c-1.56,0-3.12,0-4.68,0c0.42,0.42,0.83,0.83,1.25,1.25c0-11,0-22,0-33.01
			c0-1.56,0-3.12,0-4.68c-0.42,0.42-0.83,0.83-1.25,1.25c11,0,22,0,33.01,0c1.56,0,3.12,0,4.68,0C79.58,0.83,79.17,0.42,78.75,0
			c0,11,0,22,0,33.01c0,1.56,0,3.12,0,4.68c0,1.61,2.5,1.61,2.5,0c0-11,0-22,0-33.01c0-1.56,0-3.12,0-4.68
			c0-0.68-0.57-1.25-1.25-1.25c-11,0-22,0-33.01,0c-1.56,0-3.12,0-4.68,0c-0.68,0-1.25,0.57-1.25,1.25c0,11,0,22,0,33.01
			c0,1.56,0,3.12,0,4.68c0,0.68,0.57,1.25,1.25,1.25c11,0,22,0,33.01,0c1.56,0,3.12,0,4.68,0C81.61,38.94,81.61,36.44,80,36.44z"/>
	</g>
</g>
<g>
	<rect x="42.31" y="41.87" class="st1" width="37.69" height="37.69"/>
	<g>
		<path d="M80,78.31c-11,0-22,0-33.01,0c-1.56,0-3.12,0-4.68,0c0.42,0.42,0.83,0.83,1.25,1.25c0-11,0-22,0-33.01
			c0-1.56,0-3.12,0-4.68c-0.42,0.42-0.83,0.83-1.25,1.25c11,0,22,0,33.01,0c1.56,0,3.12,0,4.68,0c-0.42-0.42-0.83-0.83-1.25-1.25
			c0,11,0,22,0,33.01c0,1.56,0,3.12,0,4.68c0,1.61,2.5,1.61,2.5,0c0-11,0-22,0-33.01c0-1.56,0-3.12,0-4.68
			c0-0.68-0.57-1.25-1.25-1.25c-11,0-22,0-33.01,0c-1.56,0-3.12,0-4.68,0c-0.68,0-1.25,0.57-1.25,1.25c0,11,0,22,0,33.01
			c0,1.56,0,3.12,0,4.68c0,0.68,0.57,1.25,1.25,1.25c11,0,22,0,33.01,0c1.56,0,3.12,0,4.68,0C81.61,80.81,81.61,78.31,80,78.31z"/>
	</g>
</g>
<g>
	<rect x="0.44" class="st1" width="37.69" height="37.69"/>
	<g>
		<path d="M38.13,36.44c-11,0-22,0-33.01,0c-1.56,0-3.12,0-4.68,0c0.42,0.42,0.83,0.83,1.25,1.25c0-11,0-22,0-33.01
			c0-1.56,0-3.12,0-4.68C1.27,0.42,0.86,0.83,0.44,1.25c11,0,22,0,33.01,0c1.56,0,3.12,0,4.68,0C37.71,0.83,37.29,0.42,36.88,0
			c0,11,0,22,0,33.01c0,1.56,0,3.12,0,4.68c0,1.61,2.5,1.61,2.5,0c0-11,0-22,0-33.01c0-1.56,0-3.12,0-4.68
			c0-0.68-0.57-1.25-1.25-1.25c-11,0-22,0-33.01,0c-1.56,0-3.12,0-4.68,0c-0.68,0-1.25,0.57-1.25,1.25c0,11,0,22,0,33.01
			c0,1.56,0,3.12,0,4.68c0,0.68,0.57,1.25,1.25,1.25c11,0,22,0,33.01,0c1.56,0,3.12,0,4.68,0C39.74,38.94,39.74,36.44,38.13,36.44z"
			/>
	</g>
</g>
<g>
	<rect x="0.44" y="41.87" class="st0" width="37.69" height="37.69"/>
	<g>
		<path d="M38.13,78.31c-11,0-22,0-33.01,0c-1.56,0-3.12,0-4.68,0c0.42,0.42,0.83,0.83,1.25,1.25c0-11,0-22,0-33.01
			c0-1.56,0-3.12,0-4.68c-0.42,0.42-0.83,0.83-1.25,1.25c11,0,22,0,33.01,0c1.56,0,3.12,0,4.68,0c-0.42-0.42-0.83-0.83-1.25-1.25
			c0,11,0,22,0,33.01c0,1.56,0,3.12,0,4.68c0,1.61,2.5,1.61,2.5,0c0-11,0-22,0-33.01c0-1.56,0-3.12,0-4.68
			c0-0.68-0.57-1.25-1.25-1.25c-11,0-22,0-33.01,0c-1.56,0-3.12,0-4.68,0c-0.68,0-1.25,0.57-1.25,1.25c0,11,0,22,0,33.01
			c0,1.56,0,3.12,0,4.68c0,0.68,0.57,1.25,1.25,1.25c11,0,22,0,33.01,0c1.56,0,3.12,0,4.68,0C39.74,80.81,39.74,78.31,38.13,78.31z"
			/>
	</g>
</g>
<g>
</g>
<g>
</g>
<g>
</g>
<g>
</g>
<g>
</g>
<g>
</g>
</svg>
