<?xml version="1.0" encoding="utf-8"?>
<!-- Generator: Adobe Illustrator 24.2.3, SVG Export Plug-In . SVG Version: 6.00 Build 0)  -->
<svg version="1.1" xmlns="http://www.w3.org/2000/svg" xmlns:xlink="http://www.w3.org/1999/xlink" x="0px" y="0px"
	 viewBox="0 0 400 300" style="enable-background:new 0 0 400 300;" xml:space="preserve">
<style type="text/css">
	.st0{fill:none;}
	.st1{fill:none;stroke:#000000;stroke-width:0.5;stroke-linecap:round;stroke-linejoin:round;}
	.st2{fill:none;stroke:#000000;stroke-width:0.5;stroke-linecap:round;stroke-linejoin:round;stroke-dasharray:0.5285,5.2848;}
	.st3{fill:none;stroke:#000000;stroke-width:0.5;stroke-linecap:round;stroke-linejoin:round;stroke-dasharray:0.5288,5.2879;}
	.st4{fill:#EFEFED;stroke:#000000;stroke-width:0.75;stroke-linecap:round;stroke-linejoin:round;}
	.st5{fill:none;stroke:#000000;stroke-width:0.25;stroke-linecap:round;stroke-linejoin:round;}
	.st6{fill:#F2D75C;}
	.st7{fill:none;stroke:#000000;stroke-linecap:round;stroke-linejoin:round;}
	.st8{fill:none;stroke:#535353;stroke-width:0.5;stroke-linecap:round;stroke-linejoin:round;}
	.st9{fill:none;stroke:#C9C9C8;stroke-width:0.5;stroke-linecap:round;stroke-linejoin:round;}
	.st10{fill:#EFEFED;}
	.st11{fill:none;stroke:#C9C9C8;stroke-width:0.25;stroke-linecap:round;stroke-linejoin:round;}
	.st12{fill:none;stroke:#A6A6A5;stroke-width:0.25;stroke-linecap:round;stroke-linejoin:round;}
	.st13{fill:none;stroke:#231F20;stroke-width:0.25;stroke-linecap:round;stroke-linejoin:round;}
	.st14{fill:none;stroke:#C9C9C8;stroke-width:1.000000e-03;stroke-miterlimit:10;}
	.st15{opacity:0.57;fill:#F2D75B;}
	.st16{fill:none;stroke:#000000;stroke-width:0.2;stroke-linecap:round;stroke-linejoin:round;}
	.st17{fill:#EFEFED;stroke:#000000;stroke-width:0.2;stroke-linecap:round;stroke-linejoin:round;}
	.st18{fill:none;stroke:#535353;stroke-width:1.000000e-03;stroke-linecap:round;stroke-linejoin:round;}
	.st19{fill:#EFEFED;stroke:#000000;stroke-width:0.25;stroke-linecap:round;stroke-linejoin:round;}
	.st20{fill:#F2D85D;}
	.st21{fill:none;stroke:#535353;stroke-width:0.05;stroke-linecap:round;stroke-linejoin:round;}
	.st22{fill:none;stroke:#CACAC9;stroke-width:1.000000e-03;stroke-linecap:round;stroke-linejoin:round;}
</style>
<g id="Layer_1">
</g>
<g id="dot">
</g>
<g id="stairs_in_section">
</g>
<g id="plan">
	<g>
		<rect x="111.34" y="105.19" class="st0" width="40.66" height="26.55"/>
		<path d="M112.11,112.44c0.47,0.29,1.15,0.53,1.87,0.53c1.07,0,1.69-0.56,1.69-1.38c0-0.76-0.43-1.19-1.52-1.61
			c-1.32-0.47-2.14-1.15-2.14-2.29c0-1.26,1.04-2.19,2.61-2.19c0.83,0,1.43,0.19,1.79,0.4l-0.29,0.85c-0.26-0.14-0.8-0.38-1.54-0.38
			c-1.1,0-1.52,0.66-1.52,1.21c0,0.76,0.49,1.13,1.61,1.56c1.37,0.53,2.06,1.19,2.06,2.38c0,1.25-0.92,2.33-2.83,2.33
			c-0.78,0-1.63-0.23-2.06-0.52L112.11,112.44z"/>
		<path d="M118.79,111c0.02,1.43,0.94,2.01,1.99,2.01c0.76,0,1.21-0.13,1.61-0.3l0.18,0.76c-0.37,0.17-1.01,0.36-1.93,0.36
			c-1.79,0-2.85-1.18-2.85-2.93c0-1.75,1.03-3.13,2.72-3.13c1.9,0,2.4,1.67,2.4,2.73c0,0.22-0.02,0.38-0.04,0.49H118.79z
			 M121.89,110.25c0.01-0.67-0.28-1.71-1.46-1.71c-1.07,0-1.54,0.98-1.62,1.71H121.89z"/>
		<path d="M128.35,113.5c-0.28,0.14-0.89,0.34-1.67,0.34c-1.75,0-2.89-1.19-2.89-2.96c0-1.79,1.22-3.08,3.12-3.08
			c0.62,0,1.18,0.16,1.46,0.3l-0.24,0.82c-0.25-0.14-0.65-0.28-1.22-0.28c-1.33,0-2.05,0.98-2.05,2.19c0,1.34,0.86,2.17,2.02,2.17
			c0.6,0,1-0.16,1.3-0.29L128.35,113.5z"/>
		<path d="M131.02,106.24v1.67h1.51v0.8h-1.51v3.13c0,0.72,0.2,1.13,0.79,1.13c0.28,0,0.48-0.04,0.61-0.07l0.05,0.79
			c-0.2,0.08-0.53,0.14-0.94,0.14c-0.49,0-0.89-0.16-1.14-0.44c-0.3-0.31-0.41-0.83-0.41-1.51v-3.17h-0.9v-0.8h0.9v-1.39
			L131.02,106.24z"/>
		<path d="M134.89,106.28c0.01,0.36-0.25,0.65-0.67,0.65c-0.37,0-0.64-0.29-0.64-0.65c0-0.37,0.28-0.66,0.66-0.66
			C134.64,105.62,134.89,105.9,134.89,106.28z M133.72,113.71v-5.8h1.06v5.8H133.72z"/>
		<path d="M141.78,110.76c0,2.15-1.49,3.08-2.89,3.08c-1.57,0-2.78-1.15-2.78-2.99c0-1.94,1.27-3.08,2.88-3.08
			C140.65,107.77,141.78,108.99,141.78,110.76z M137.18,110.82c0,1.27,0.73,2.23,1.76,2.23c1.01,0,1.76-0.95,1.76-2.25
			c0-0.98-0.49-2.23-1.74-2.23C137.72,108.57,137.18,109.72,137.18,110.82z"/>
		<path d="M143.12,109.48c0-0.6-0.01-1.09-0.05-1.57H144l0.06,0.96h0.02c0.29-0.55,0.96-1.09,1.92-1.09c0.8,0,2.05,0.48,2.05,2.47
			v3.47H147v-3.35c0-0.94-0.35-1.71-1.34-1.71c-0.7,0-1.24,0.49-1.42,1.08c-0.05,0.13-0.07,0.31-0.07,0.49v3.49h-1.06V109.48z"/>
	</g>
	<g>
		<rect x="118.34" y="239.19" class="st0" width="27.66" height="26.55"/>
		<path d="M119.25,239.72c0.5-0.08,1.16-0.16,2-0.16c1.03,0,1.79,0.24,2.27,0.67c0.44,0.38,0.71,0.97,0.71,1.69
			c0,0.73-0.22,1.31-0.62,1.73c-0.55,0.59-1.45,0.89-2.47,0.89c-0.31,0-0.6-0.01-0.84-0.07v3.24h-1.04V239.72z M120.3,243.62
			c0.23,0.06,0.52,0.08,0.86,0.08c1.26,0,2.03-0.61,2.03-1.73c0-1.07-0.76-1.58-1.91-1.58c-0.46,0-0.8,0.04-0.98,0.08V243.62z"/>
		<path d="M125.54,239.2h1.06v8.51h-1.06V239.2z"/>
		<path d="M131.59,247.71l-0.08-0.73h-0.04c-0.32,0.46-0.95,0.86-1.77,0.86c-1.18,0-1.77-0.83-1.77-1.67c0-1.4,1.25-2.17,3.49-2.16
			v-0.12c0-0.48-0.13-1.34-1.32-1.34c-0.54,0-1.1,0.17-1.51,0.43l-0.24-0.7c0.48-0.31,1.18-0.52,1.91-0.52
			c1.77,0,2.21,1.21,2.21,2.37v2.17c0,0.5,0.02,1,0.1,1.39H131.59z M131.43,244.75c-1.15-0.02-2.46,0.18-2.46,1.31
			c0,0.68,0.46,1.01,1,1.01c0.76,0,1.24-0.48,1.4-0.97c0.04-0.11,0.06-0.23,0.06-0.34V244.75z"/>
		<path d="M134.16,243.48c0-0.6-0.01-1.09-0.05-1.57h0.94l0.06,0.96h0.02c0.29-0.55,0.96-1.09,1.92-1.09c0.8,0,2.05,0.48,2.05,2.47
			v3.47h-1.06v-3.35c0-0.94-0.35-1.71-1.34-1.71c-0.7,0-1.24,0.49-1.42,1.08c-0.05,0.13-0.07,0.31-0.07,0.49v3.49h-1.06V243.48z"/>
	</g>
</g>
<g id="light_line">
</g>
<g id="orange">
</g>
<g id="arrey">
</g>
<g id="sail">
</g>
<g id="sail_light_line">
</g>
<g id="boresh">
</g>
<g id="Isolation_Mode">
	<line class="st9" x1="233.01" y1="93.39" x2="233.01" y2="93.7"/>
	<line class="st9" x1="233.01" y1="93.39" x2="233.01" y2="93.08"/>
	<line class="st9" x1="233.01" y1="91.62" x2="233.01" y2="91.93"/>
	<line class="st9" x1="233.01" y1="91.62" x2="233.01" y2="91.31"/>
	<line class="st9" x1="233.01" y1="95.16" x2="233.01" y2="95.55"/>
	<line class="st9" x1="233.01" y1="95.16" x2="233.01" y2="94.85"/>
	<line class="st9" x1="228.49" y1="96.63" x2="228.49" y2="96.62"/>
	<line class="st9" x1="233.01" y1="97.25" x2="233.01" y2="96.63"/>
	<line class="st9" x1="228.58" y1="95.57" x2="228.58" y2="95.55"/>
	<line class="st9" x1="230.59" y1="96.64" x2="230.59" y2="95.57"/>
	<line class="st9" x1="232.95" y1="97.26" x2="234.58" y2="98.42"/>
	<line class="st11" x1="249.26" y1="108.92" x2="249.16" y2="110.13"/>
	<line class="st9" x1="230.59" y1="95.57" x2="232.09" y2="96.65"/>
	<line class="st9" x1="233.01" y1="98.59" x2="231.17" y2="97.27"/>
	<line class="st9" x1="223.68" y1="96.63" x2="233.01" y2="96.63"/>
	<line class="st9" x1="223.59" y1="97.25" x2="233.01" y2="97.25"/>
	<line class="st9" x1="223.59" y1="95.55" x2="233.01" y2="95.55"/>
	<line class="st9" x1="223.59" y1="94.85" x2="233.01" y2="94.85"/>
	<line class="st9" x1="223.65" y1="91.93" x2="233.01" y2="91.93"/>
	<line class="st9" x1="223.65" y1="93.7" x2="233.01" y2="93.7"/>
	<line class="st9" x1="223.65" y1="93.08" x2="233.01" y2="93.08"/>
	<line class="st9" x1="233.01" y1="91.31" x2="223.59" y2="91.31"/>
	<path class="st4" d="M270.86,144.54c0-1.57,0-3.14,0-4.71c-32.22,0-64.44,0.01-96.65,0.01v106.18c2.43,0,4.85-0.01,7.27-0.01
		c0.01-4.56,0.03-9.12,0.04-13.69c18.14,0,36.27-0.01,54.41-0.01c-0.07,4.57-0.13,9.14-0.19,13.7h5.19
		c0.01-13.08,0.02-26.16,0.03-39.24c3.06,0,6.13,0,9.19,0v-2.59h-26.86v-35.1h26.86v-2.59h-9.12v-20.78
		c7.98,0.01,15.96,0.02,23.94,0.03c0,0.68,0,1.35,0,2.03c-0.07,0.7,0.16,1.4,0.63,1.92c0.47,0.52,1.14,0.82,1.85,0.82h15.88v-5.99
		C279.16,144.53,275.01,144.54,270.86,144.54z M220.68,166.5v40.29h15.3v20.74l-54.49,0.01V145.8h54.56l0.09,20.7H220.68z"/>
	<line class="st9" x1="233.01" y1="89.98" x2="233.01" y2="90.29"/>
	<line class="st9" x1="233.01" y1="89.98" x2="233.01" y2="89.67"/>
	<line class="st9" x1="223.65" y1="90.29" x2="233.01" y2="90.29"/>
	<line class="st11" x1="233.01" y1="89.67" x2="223.59" y2="89.67"/>
	<line class="st9" x1="234.58" y1="98.42" x2="249.26" y2="108.92"/>
	<line class="st9" x1="249.16" y1="110.13" x2="233.01" y2="98.59"/>
	<polyline class="st12" points="283.31,144.53 283.35,164.54 279.47,168.19 283.35,167.84 283.31,182.15 	"/>
	<g>
		<path class="st4" d="M283.31,177.25v4.89c-4.04,0-8.08-0.01-12.11-0.01c-0.01,21.3-0.03,42.59-0.04,63.89h-6.44
			c0.13-22,0.18-43.99,0.16-65.99c0-0.73,0.29-1.44,0.81-1.96c0.52-0.52,1.22-0.81,1.95-0.81
			C272.87,177.26,278.09,177.25,283.31,177.25z"/>
	</g>
	<line class="st13" x1="249.46" y1="173.13" x2="227.61" y2="173.1"/>
	<line class="st13" x1="227.61" y1="173.1" x2="227.6" y2="181.51"/>
	<line class="st13" x1="246.24" y1="173.73" x2="247.96" y2="173.73"/>
	<line class="st13" x1="246.24" y1="172.52" x2="247.96" y2="172.52"/>
	<line class="st13" x1="227.6" y1="181.51" x2="228.24" y2="179.66"/>
	<line class="st13" x1="227.6" y1="181.51" x2="226.97" y2="179.66"/>
	<polyline class="st5" points="174.21,246.03 221.69,246.02 225.43,250 225.07,246.02 271.16,246.02 	"/>
	<rect x="223.65" y="86.32" class="st6" width="26" height="1.97"/>
	<line class="st8" x1="170.18" y1="61.57" x2="174.04" y2="61.57"/>
	<line class="st8" x1="270.29" y1="61.69" x2="274.02" y2="61.69"/>
	<path class="st8" d="M270.02,61.69H173.8c-0.51,0-0.93-0.42-0.93-0.93v-0.13c0-0.51,0.42-0.93,0.93-0.93h96.22
		c0.51,0,0.93,0.42,0.93,0.93v0.13C270.95,61.27,270.53,61.69,270.02,61.69z"/>
	<line class="st8" x1="173.53" y1="59.7" x2="220.97" y2="44.44"/>
	<line class="st8" x1="173.53" y1="59.7" x2="173.53" y2="61.56"/>
	<line class="st8" x1="220.97" y1="46.4" x2="179.63" y2="59.7"/>
	<line class="st8" x1="274.02" y1="60.44" x2="222.91" y2="44.01"/>
	<line class="st8" x1="220.91" y1="44.01" x2="169.79" y2="60.44"/>
	<line class="st8" x1="270.29" y1="59.7" x2="222.84" y2="44.44"/>
	<line class="st8" x1="222.84" y1="46.4" x2="264.19" y2="59.7"/>
	<line class="st8" x1="274.02" y1="61.69" x2="274.02" y2="60.44"/>
	<path class="st8" d="M222.77,44.01c-0.59-0.02-1.19-0.01-1.78-0.01"/>
	<path class="st8" d="M222.77,44.45c-0.59-0.02-1.19-0.01-1.78-0.01"/>
	<polygon class="st9" points="194.6,54.88 193.35,55.28 193.35,59.7 194.6,59.7 	"/>
	<polygon class="st9" points="206.85,50.94 205.35,51.43 194.6,58.94 194.6,59.7 195.68,59.7 206.85,51.9 	"/>
	<polygon class="st9" points="208.1,50.54 208.1,59.7 206.85,59.7 206.85,50.94 	"/>
	<polygon class="st9" points="208.67,50.36 220.97,58.94 220.99,59.7 219.89,59.7 208.1,51.48 208.1,50.54 	"/>
	<polygon class="st9" points="249.17,54.88 250.41,55.28 250.41,59.7 249.17,59.7 	"/>
	<polygon class="st9" points="236.91,50.94 238.42,51.43 249.17,58.94 249.17,59.7 248.08,59.7 236.91,51.9 	"/>
	<polygon class="st9" points="235.67,50.54 235.67,59.7 236.91,59.7 236.91,50.94 	"/>
	<polygon class="st9" points="235.1,50.36 222.79,58.94 222.77,59.7 223.88,59.7 235.67,51.48 235.67,50.54 	"/>
	<rect x="220.97" y="44.64" class="st9" width="1.8" height="15.06"/>
	<polygon class="st4" points="274.59,110.3 274.59,114.31 170.8,114.31 170.8,110.3 174.32,110.3 174.32,61.7 180.79,61.7 
		180.79,110.3 264.4,110.3 264.4,61.58 270.85,61.58 270.85,110.3 	"/>
	<rect x="219.95" y="61.69" class="st4" width="3.5" height="48.5"/>
	<line class="st14" x1="241.02" y1="88.29" x2="241.02" y2="103.08"/>
	<line class="st14" x1="241.02" y1="61.69" x2="241.02" y2="86.32"/>
	<line class="st14" x1="241.02" y1="104.31" x2="241.02" y2="110.13"/>
	<rect x="223.56" y="169.1" class="st15" width="26.09" height="35.1"/>
</g>
<g id="Make2D::Visible::Curves">
</g>
<g id="Make2D::Visible::ClippingPlaneIntersections">
</g>
<g id="Make2D::Visible::SceneSilhouetteCurves">
</g>
</svg>
