<?xml version="1.0" encoding="utf-8"?>
<!-- Generator: Adobe Illustrator 24.2.3, SVG Export Plug-In . SVG Version: 6.00 Build 0)  -->
<svg version="1.1" xmlns="http://www.w3.org/2000/svg" xmlns:xlink="http://www.w3.org/1999/xlink" x="0px" y="0px"
	 viewBox="0 0 400 300" style="enable-background:new 0 0 400 300;" xml:space="preserve">
<style type="text/css">
	.st0{fill:none;}
	.st1{fill:none;stroke:#000000;stroke-width:0.5;stroke-linecap:round;stroke-linejoin:round;}
	.st2{fill:none;stroke:#000000;stroke-width:0.5;stroke-linecap:round;stroke-linejoin:round;stroke-dasharray:0.5285,5.2848;}
	.st3{fill:none;stroke:#000000;stroke-width:0.5;stroke-linecap:round;stroke-linejoin:round;stroke-dasharray:0.5288,5.2879;}
	.st4{fill:#EFEFED;stroke:#000000;stroke-width:0.75;stroke-linecap:round;stroke-linejoin:round;}
	.st5{fill:none;stroke:#000000;stroke-width:0.25;stroke-linecap:round;stroke-linejoin:round;}
	.st6{fill:#F2D75C;}
	.st7{fill:none;stroke:#000000;stroke-linecap:round;stroke-linejoin:round;}
	.st8{fill:none;stroke:#535353;stroke-width:0.5;stroke-linecap:round;stroke-linejoin:round;}
	.st9{fill:none;stroke:#C9C9C8;stroke-width:0.5;stroke-linecap:round;stroke-linejoin:round;}
	.st10{fill:#EFEFED;}
	.st11{fill:none;stroke:#C9C9C8;stroke-width:0.25;stroke-linecap:round;stroke-linejoin:round;}
	.st12{fill:none;stroke:#A6A6A5;stroke-width:0.25;stroke-linecap:round;stroke-linejoin:round;}
	.st13{fill:none;stroke:#231F20;stroke-width:0.25;stroke-linecap:round;stroke-linejoin:round;}
	.st14{fill:none;stroke:#C9C9C8;stroke-width:1.000000e-03;stroke-miterlimit:10;}
	.st15{opacity:0.57;fill:#F2D75B;}
	.st16{fill:none;stroke:#000000;stroke-width:0.2;stroke-linecap:round;stroke-linejoin:round;}
	.st17{fill:#EFEFED;stroke:#000000;stroke-width:0.2;stroke-linecap:round;stroke-linejoin:round;}
	.st18{fill:none;stroke:#535353;stroke-width:1.000000e-03;stroke-linecap:round;stroke-linejoin:round;}
	.st19{fill:#EFEFED;stroke:#000000;stroke-width:0.25;stroke-linecap:round;stroke-linejoin:round;}
	.st20{fill:#F2D85D;}
	.st21{fill:none;stroke:#535353;stroke-width:0.05;stroke-linecap:round;stroke-linejoin:round;}
	.st22{fill:none;stroke:#CACAC9;stroke-width:1.000000e-03;stroke-linecap:round;stroke-linejoin:round;}
</style>
<g id="Layer_1">
</g>
<g id="dot">
</g>
<g id="stairs_in_section">
</g>
<g id="plan">
	<g>
		<rect x="111.34" y="105.19" class="st0" width="40.66" height="26.55"/>
		<path d="M112.11,112.44c0.47,0.29,1.15,0.53,1.87,0.53c1.07,0,1.69-0.56,1.69-1.38c0-0.76-0.43-1.19-1.52-1.61
			c-1.32-0.47-2.14-1.15-2.14-2.29c0-1.26,1.04-2.19,2.61-2.19c0.83,0,1.43,0.19,1.79,0.4l-0.29,0.85c-0.26-0.14-0.8-0.38-1.54-0.38
			c-1.1,0-1.52,0.66-1.52,1.21c0,0.76,0.49,1.13,1.61,1.56c1.37,0.53,2.06,1.19,2.06,2.38c0,1.25-0.92,2.33-2.83,2.33
			c-0.78,0-1.63-0.23-2.06-0.52L112.11,112.44z"/>
		<path d="M118.79,111c0.02,1.43,0.94,2.01,1.99,2.01c0.76,0,1.21-0.13,1.61-0.3l0.18,0.76c-0.37,0.17-1.01,0.36-1.93,0.36
			c-1.79,0-2.85-1.18-2.85-2.93c0-1.75,1.03-3.13,2.72-3.13c1.9,0,2.4,1.67,2.4,2.73c0,0.22-0.02,0.38-0.04,0.49H118.79z
			 M121.89,110.25c0.01-0.67-0.28-1.71-1.46-1.71c-1.07,0-1.54,0.98-1.62,1.71H121.89z"/>
		<path d="M128.35,113.5c-0.28,0.14-0.89,0.34-1.67,0.34c-1.75,0-2.89-1.19-2.89-2.96c0-1.79,1.22-3.08,3.12-3.08
			c0.62,0,1.18,0.16,1.46,0.3l-0.24,0.82c-0.25-0.14-0.65-0.28-1.22-0.28c-1.33,0-2.05,0.98-2.05,2.19c0,1.34,0.86,2.17,2.02,2.17
			c0.6,0,1-0.16,1.3-0.29L128.35,113.5z"/>
		<path d="M131.02,106.24v1.67h1.51v0.8h-1.51v3.13c0,0.72,0.2,1.13,0.79,1.13c0.28,0,0.48-0.04,0.61-0.07l0.05,0.79
			c-0.2,0.08-0.53,0.14-0.94,0.14c-0.49,0-0.89-0.16-1.14-0.44c-0.3-0.31-0.41-0.83-0.41-1.51v-3.17h-0.9v-0.8h0.9v-1.39
			L131.02,106.24z"/>
		<path d="M134.89,106.28c0.01,0.36-0.25,0.65-0.67,0.65c-0.37,0-0.64-0.29-0.64-0.65c0-0.37,0.28-0.66,0.66-0.66
			C134.64,105.62,134.89,105.9,134.89,106.28z M133.72,113.71v-5.8h1.06v5.8H133.72z"/>
		<path d="M141.78,110.76c0,2.15-1.49,3.08-2.89,3.08c-1.57,0-2.78-1.15-2.78-2.99c0-1.94,1.27-3.08,2.88-3.08
			C140.65,107.77,141.78,108.99,141.78,110.76z M137.18,110.82c0,1.27,0.73,2.23,1.76,2.23c1.01,0,1.76-0.95,1.76-2.25
			c0-0.98-0.49-2.23-1.74-2.23C137.72,108.57,137.18,109.72,137.18,110.82z"/>
		<path d="M143.12,109.48c0-0.6-0.01-1.09-0.05-1.57H144l0.06,0.96h0.02c0.29-0.55,0.96-1.09,1.92-1.09c0.8,0,2.05,0.48,2.05,2.47
			v3.47H147v-3.35c0-0.94-0.35-1.71-1.34-1.71c-0.7,0-1.24,0.49-1.42,1.08c-0.05,0.13-0.07,0.31-0.07,0.49v3.49h-1.06V109.48z"/>
	</g>
	<g>
		<rect x="118.34" y="239.19" class="st0" width="27.66" height="26.55"/>
		<path d="M119.25,239.72c0.5-0.08,1.16-0.16,2-0.16c1.03,0,1.79,0.24,2.27,0.67c0.44,0.38,0.71,0.97,0.71,1.69
			c0,0.73-0.22,1.31-0.62,1.73c-0.55,0.59-1.45,0.89-2.47,0.89c-0.31,0-0.6-0.01-0.84-0.07v3.24h-1.04V239.72z M120.3,243.62
			c0.23,0.06,0.52,0.08,0.86,0.08c1.26,0,2.03-0.61,2.03-1.73c0-1.07-0.76-1.58-1.91-1.58c-0.46,0-0.8,0.04-0.98,0.08V243.62z"/>
		<path d="M125.54,239.2h1.06v8.51h-1.06V239.2z"/>
		<path d="M131.59,247.71l-0.08-0.73h-0.04c-0.32,0.46-0.95,0.86-1.77,0.86c-1.18,0-1.77-0.83-1.77-1.67c0-1.4,1.25-2.17,3.49-2.16
			v-0.12c0-0.48-0.13-1.34-1.32-1.34c-0.54,0-1.1,0.17-1.51,0.43l-0.24-0.7c0.48-0.31,1.18-0.52,1.91-0.52
			c1.77,0,2.21,1.21,2.21,2.37v2.17c0,0.5,0.02,1,0.1,1.39H131.59z M131.43,244.75c-1.15-0.02-2.46,0.18-2.46,1.31
			c0,0.68,0.46,1.01,1,1.01c0.76,0,1.24-0.48,1.4-0.97c0.04-0.11,0.06-0.23,0.06-0.34V244.75z"/>
		<path d="M134.16,243.48c0-0.6-0.01-1.09-0.05-1.57h0.94l0.06,0.96h0.02c0.29-0.55,0.96-1.09,1.92-1.09c0.8,0,2.05,0.48,2.05,2.47
			v3.47h-1.06v-3.35c0-0.94-0.35-1.71-1.34-1.71c-0.7,0-1.24,0.49-1.42,1.08c-0.05,0.13-0.07,0.31-0.07,0.49v3.49h-1.06V243.48z"/>
	</g>
</g>
<g id="light_line">
</g>
<g id="orange">
</g>
<g id="arrey">
</g>
<g id="sail">
</g>
<g id="sail_light_line">
</g>
<g id="boresh">
	<g>
		<g>
			<line class="st1" x1="240.83" y1="207.89" x2="240.83" y2="207.64"/>
			<line class="st2" x1="240.84" y1="202.35" x2="240.86" y2="170.12"/>
			<line class="st1" x1="240.86" y1="167.47" x2="240.86" y2="167.22"/>
		</g>
	</g>
	<g>
		<g>
			<line class="st1" x1="235.89" y1="207.89" x2="235.89" y2="207.64"/>
			<line class="st3" x1="235.9" y1="202.36" x2="235.94" y2="170.1"/>
			<line class="st1" x1="235.94" y1="167.46" x2="235.94" y2="167.21"/>
		</g>
	</g>
	<path class="st4" d="M283.69,144.82v6.07h-16.08c-0.71,0-1.39-0.3-1.87-0.83c-0.48-0.53-0.71-1.24-0.63-1.95c0-0.68,0-1.37,0-2.05
		c-8.08-0.01-16.17-0.02-24.25-0.03v21.05h-4.93l-0.1-20.97h-55.27v82.81l55.2-0.01v-21.01l5.02-0.01
		c-0.01,13.25-0.01,26.5-0.02,39.75h-5.26c0.07-4.63,0.13-9.25,0.2-13.88c-18.37,0-36.75,0.01-55.12,0.01
		c-0.01,4.62-0.03,9.24-0.04,13.87c-2.46,0-4.91,0.01-7.37,0.01V140.07l97.91-0.01c0,1.59,0,3.18,0,4.77
		C275.28,144.82,279.49,144.82,283.69,144.82z"/>
	<path class="st4" d="M283.69,177.97v4.96c-4.09,0-8.18-0.01-12.27-0.01c-0.01,21.57-0.03,43.15-0.04,64.72h-6.52
		c0.13-22.28,0.19-44.57,0.16-66.85c0-0.74,0.29-1.46,0.82-1.98c0.52-0.53,1.24-0.82,1.98-0.82
		C273.11,177.97,278.4,177.97,283.69,177.97z"/>
	<polyline class="st5" points="180.54,247.63 222.23,247.8 226.02,251.83 225.65,247.8 264.86,247.64 	"/>
	<polyline class="st5" points="283.69,150.89 284,163.43 279.97,167.22 284,166.85 283.69,177.97 	"/>
	<rect x="221.15" y="61.36" class="st6" width="4.29" height="48.97"/>
	<rect x="221.15" y="169.15" class="st6" width="4.46" height="38.1"/>
	<g>
		<g>
			<line class="st7" x1="244.58" y1="190.2" x2="231.98" y2="190.2"/>
			<g>
				<polygon points="232.8,196.27 232.8,184.13 226.73,190.2 				"/>
			</g>
		</g>
	</g>
	<g>
		<g>
			<line class="st7" x1="235.34" y1="88.32" x2="231.15" y2="88.32"/>
			<g>
				<polygon points="231.96,94.39 231.96,82.24 225.89,88.32 				"/>
			</g>
		</g>
	</g>
	<path class="st8" d="M273.28,61.36h-99.91c-0.55,0-0.99-0.45-0.99-0.99v-0.08c0-0.55,0.45-0.99,0.99-0.99h99.91
		c0.55,0,0.99,0.45,0.99,0.99v0.08C274.28,60.92,273.83,61.36,273.28,61.36z"/>
	<line class="st8" x1="173.07" y1="59.29" x2="222.36" y2="43.45"/>
	<line class="st8" x1="173.07" y1="59.29" x2="173.07" y2="61.23"/>
	<line class="st8" x1="222.36" y1="45.48" x2="179.41" y2="59.29"/>
	<line class="st8" x1="277.47" y1="60.06" x2="224.37" y2="42.99"/>
	<line class="st8" x1="222.29" y1="42.99" x2="169.19" y2="60.06"/>
	<line class="st8" x1="273.59" y1="59.29" x2="224.3" y2="43.45"/>
	<line class="st8" x1="224.3" y1="45.48" x2="267.25" y2="59.29"/>
	<line class="st8" x1="169.19" y1="61.36" x2="173.07" y2="61.36"/>
	<line class="st8" x1="169.19" y1="60.06" x2="169.19" y2="61.36"/>
	<line class="st8" x1="277.47" y1="61.36" x2="277.47" y2="60.06"/>
	<line class="st8" x1="273.59" y1="61.36" x2="277.47" y2="61.36"/>
	<path class="st8" d="M224.36,42.97c-0.6-0.02-1.2-0.01-1.81-0.01h-0.23"/>
	<path class="st8" d="M224.36,43.45c-0.6-0.02-1.2-0.01-1.81-0.01h-0.23"/>
	<polygon class="st9" points="194.96,54.29 193.67,54.71 193.67,59.29 194.96,59.29 	"/>
	<polygon class="st9" points="207.69,50.2 206.13,50.7 194.96,58.5 194.96,59.29 196.09,59.29 207.69,51.19 	"/>
	<polygon class="st9" points="208.98,49.78 208.98,59.29 207.69,59.29 207.69,50.2 	"/>
	<polygon class="st9" points="209.58,49.59 222.36,58.5 222.38,59.29 221.23,59.29 208.98,50.76 208.98,49.78 	"/>
	<polygon class="st9" points="251.65,54.29 252.94,54.71 252.94,59.29 251.65,59.29 	"/>
	<polygon class="st9" points="238.92,50.2 240.48,50.7 251.65,58.5 251.65,59.29 250.52,59.29 238.92,51.19 	"/>
	<polygon class="st9" points="237.62,49.78 237.62,59.29 238.92,59.29 238.92,50.2 	"/>
	<polygon class="st9" points="237.03,49.59 224.25,58.5 224.23,59.29 225.38,59.29 237.62,50.76 237.62,49.78 	"/>
	<rect x="222.36" y="43.58" class="st9" width="1.87" height="15.71"/>
	<polygon class="st4" points="275.44,110.34 275.44,114.36 170.3,114.36 170.3,110.34 173.88,110.34 173.88,61.49 180.43,61.49 
		180.43,110.34 265.12,110.34 265.12,61.37 271.65,61.37 271.65,110.34 	"/>
	<rect x="235.87" y="61.36" class="st10" width="5.2" height="48.97"/>
</g>
<g id="Isolation_Mode">
</g>
<g id="Make2D::Visible::Curves">
</g>
<g id="Make2D::Visible::ClippingPlaneIntersections">
</g>
<g id="Make2D::Visible::SceneSilhouetteCurves">
</g>
</svg>
